<svg width="500" height="500" viewBox="0 0 500 500" fill="none" xmlns="http://www.w3.org/2000/svg">
<path d="M323.8 69.2C313.2 70 304.7 78.3 303.6 88.9C302.5 78.3 294 70 283.4 69.2C294 68.4 302.5 60.1 303.6 49.5C304.7 60.1 313.2 68.4 323.8 69.2Z" fill="#FED490"/>
<path d="M288.8 51.9C283.1 52.3 278.6 56.8 278 62.4C277.4 56.7 272.9 52.3 267.2 51.9C272.9 51.5 277.5 47 278 41.4C278.6 47.1 283.1 51.5 288.8 51.9Z" fill="#FED490"/>
<path d="M229.8 406.2H70C61.2 406.2 54 399 54 390.2V388.6C54.1 387.9 54.7 387.3 55.5 387.4C56.2 387.5 56.7 388 56.7 388.6V390.2C56.7 397.5 62.7 403.5 70 403.5H229.8C237.2 403.5 243.1 397.5 243.1 390.2V51C243.1 43.6 237.1 37.7 229.8 37.7H228.7C228 37.6 227.4 37 227.5 36.2C227.6 35.5 228.1 35 228.7 35H229.8C238.6 35 245.8 42.2 245.8 51V390.2C245.8 399 238.7 406.2 229.8 406.2Z" fill="#000111"/>
<path d="M53.1 10H202.4C216.9 10 228.7 21.8 228.7 36.3V362.2C228.7 376.7 216.9 388.5 202.4 388.5H53.1C38.6 388.5 26.8 376.7 26.8 362.2V36.3C26.8 21.8 38.5 10 53.1 10Z" fill="url(#paint0_linear_1_2)"/>
<path d="M68.5 67.5H187C196.4 67.5 203.9 75.1 203.9 84.4V203C203.9 212.4 196.3 219.9 187 219.9H68.5C59.1 219.9 51.6 212.3 51.6 203V84.5C51.5 75.1 59.1 67.5 68.5 67.5Z" fill="white"/>
<path d="M136.8 77C136.8 77 125.7 44.3 161 33.7C161 33.7 164.7 42.6 165 41.9C165.3 41.2 170.7 31.3 170.7 31.3C180.2 27.7 190.7 28.1 199.9 32.3C215 39.5 191 60.7 168.8 66.9L159.2 63.7L163.1 71.8C163 71.8 147.3 87.3 136.8 77Z" fill="white"/>
<path d="M145.2 81.8C141.7 81.8 138.3 80.4 135.8 77.9C135.7 77.8 135.5 77.6 135.5 77.4C135.3 76.8 130.7 62.9 137.3 49.9C141.5 41.7 149.4 35.8 160.6 32.4C161.3 32.2 162 32.5 162.2 33.2C163.1 35.2 164.1 37.5 164.8 39.1C166.1 36.6 168.3 32.6 169.4 30.6C169.5 30.3 169.8 30.1 170 30C179.8 26.2 190.7 26.6 200.3 31C205.2 33.3 206 36.8 205.7 39.4C204.8 50.1 185.2 63.6 168.9 68.2C168.6 68.3 168.4 68.3 168.1 68.2L161.5 66L164 71.3C164.2 71.8 164.1 72.4 163.7 72.8C160 76.6 152.5 81.8 145.2 81.8ZM137.9 76.2C146.2 83.9 158.3 74.1 161.3 71.4L157.9 64.2C157.6 63.5 157.9 62.7 158.5 62.4C158.8 62.3 159.2 62.2 159.5 62.3L168.7 65.4C185.1 60.7 202.4 47.5 203.2 39.1C203.4 36.6 202.1 34.8 199.3 33.4C186.4 27.3 174 31.4 171.7 32.3C169.2 36.8 166.6 41.7 166.3 42.3C166.1 42.8 165.6 43.2 165 43.2C164 43.2 163.6 43.2 160.3 35.3C150.4 38.5 143.6 43.8 139.8 51.1C134.1 62 137.3 74.2 137.9 76.2Z" fill="#000111"/>
<path d="M148.2 205.4H107.2C106.6 205.4 106.1 205 105.9 204.4C105.5 203.1 96.7 172.8 95.9 161C95.1 147.9 106 140.7 114.8 135C118.8 132.5 121.1 128 121 123.3C121 122.2 120.6 121.1 119.8 120.4C119 119.6 117.9 119.1 116.8 119.1H113.8C110 119.1 106.9 116 106.9 112.2C106.9 108.4 110 105.3 113.8 105.3H141.4C145.2 105.3 148.3 108.4 148.3 112.2C148.3 116 145.2 119.1 141.4 119.1H138.4C137.3 119.1 136.2 119.6 135.4 120.4C134.6 121.2 134.2 122.2 134.2 123.3C134.1 128 136.5 132.5 140.5 135C149.3 140.8 160.3 147.9 159.4 161C158.6 172.9 149.8 203.1 149.4 204.4C149.3 205 148.8 205.4 148.2 205.4ZM108.2 202.7H147.2C148.7 197.3 156.1 171.2 156.8 160.8C157.5 150.1 149.5 144 139.1 137.2C134.4 134.2 131.6 128.9 131.7 123.3C131.7 121.5 132.4 119.7 133.7 118.5C135 117.2 136.8 116.4 138.6 116.4H141.6C143.9 116.4 145.8 114.5 145.8 112.2C145.8 109.9 143.9 108 141.6 108H114C111.7 108 109.8 109.9 109.8 112.2C109.8 114.5 111.7 116.4 114 116.4H117C118.9 116.4 120.6 117.1 121.9 118.5C123.2 119.8 123.9 121.5 123.9 123.3C124 128.9 121.2 134.2 116.5 137.2C106 144 98.1 150.1 98.8 160.8C99.3 171.2 106.7 197.3 108.2 202.7Z" fill="#000111"/>
<path d="M151 195.5C150.3 195.5 149.7 194.9 149.7 194.1C149.7 193.6 150 193.1 150.4 192.9C156 190.1 171 181.3 172.5 174.7C172.8 173.5 172.5 172.3 171.7 171.4C167.2 165.8 150.1 171.6 137.7 175.9C125.9 179.9 119.6 181.9 117 179.7C116.1 178.9 115.8 177.7 116.1 176.5C117 171.7 123.4 164.9 134.9 156.4C143.4 150.1 151.7 145.1 151.8 145.1C152.5 144.8 153.3 145 153.6 145.7C153.9 146.3 153.7 147.1 153.2 147.4C144.2 152.8 120.4 168.7 118.8 177.1C118.7 177.4 118.8 177.7 118.8 177.7C120.3 179 129.8 175.7 136.8 173.4C151.5 168.4 168.1 162.7 173.8 169.8C175.1 171.4 175.6 173.4 175.1 175.4C173.1 184.6 152.5 195 151.6 195.5C151.4 195.5 151.2 195.5 151 195.5Z" fill="#000111"/>
<path d="M98.7 164.6C98 164.6 97.4 164 97.3 163.3C97.3 162.8 97.6 162.3 98 162.1C114.7 153.7 118.6 147.1 118.9 143C119.1 140.6 118.1 138.3 116.2 136.8C115.6 136.4 115.5 135.5 115.9 134.9C116.3 134.3 117.2 134.2 117.8 134.6C120.4 136.6 121.8 139.8 121.6 143.1C121 150 113.5 157.1 99.2 164.4C99.1 164.6 98.9 164.7 98.7 164.6Z" fill="#000111"/>
<path d="M141.6 119.1H115C114.3 119.2 113.6 118.6 113.5 117.9C113.4 117.2 114 116.5 114.7 116.4C114.8 116.4 114.9 116.4 114.9 116.4H141.5C142.2 116.5 142.8 117.1 142.7 117.9C142.7 118.5 142.2 119.1 141.6 119.1Z" fill="#000111"/>
<path d="M127.6 107.6C126.9 107.6 126.3 107 126.3 106.3C126 94.6 121 84.5 112 77.9C99.8 68.8 81.5 66.9 60.7 72.6C60 72.9 59.2 72.6 58.9 72C58.6 71.3 58.9 70.5 59.5 70.2C59.6 70.1 59.8 70.1 60 70.1C81.6 64.1 100.7 66.2 113.6 75.8C120.4 80.8 125.4 88 127.5 96.3C129.1 89.1 131.8 82.3 135.5 76C144.1 61.3 162.8 42 202.8 33.6C203.5 33.4 204.2 33.9 204.4 34.6C204.6 35.3 204.1 36 203.4 36.2C181.9 40.7 153.2 51.4 138 77.2C128.9 92.6 129 106.2 129 106.4C128.9 107 128.3 107.6 127.6 107.6C127.5 107.6 127.5 107.6 127.6 107.6Z" fill="#000111"/>
<path d="M101.6 93C101 93 100.5 93 99.9 93C72.6 91.8 57.7 82 57.5 73.4C57.4 69.7 60.1 61 85.7 58.9C99.1 57.8 109.1 60.4 115.3 66.7C119.9 71.5 122.3 77.9 122 84.5C122 84.8 121.9 85 121.7 85.2C121.5 85.6 115.3 93 101.6 93ZM91.4 61.4C89.6 61.4 87.8 61.5 85.9 61.6C66.8 63.2 60.1 68.7 60.1 73.3C60.2 80.6 75.5 89.2 99.9 90.2C111.9 90.7 118 85.2 119.3 83.8C119.3 81.9 119.1 74.3 113.3 68.6C108.6 63.8 101.2 61.4 91.4 61.4Z" fill="#000111"/>
<path d="M107.3 205.4H94.7C94 205.3 93.4 204.7 93.5 203.9C93.6 203.2 94.1 202.7 94.7 202.7H107.3C108 202.8 108.6 203.4 108.5 204.2C108.4 204.8 107.9 205.3 107.3 205.4Z" fill="#000111"/>
<path d="M159.7 205.4H148.2C147.5 205.5 146.8 204.9 146.7 204.2C146.6 203.5 147.2 202.8 147.9 202.7C148 202.7 148.1 202.7 148.1 202.7H159.6C160.3 202.6 161 203.2 161.1 203.9C161.2 204.6 160.6 205.3 159.9 205.4C159.9 205.4 159.8 205.4 159.7 205.4Z" fill="#000111"/>
<path d="M70.5 86.3C70.1 86.3 69.8 86.2 69.5 85.9C69 85.4 69 84.5 69.5 84L86.7 67.4C87.3 66.9 88.1 67 88.6 67.6C89 68.1 89 68.9 88.6 69.4L71.4 85.9C71.2 86.1 70.8 86.3 70.5 86.3Z" fill="#000111"/>
<path d="M106.8 74.2C106.2 74.2 105.7 73.9 105.5 73.3L101.3 62.2C101 61.5 101.4 60.7 102.1 60.5C102.8 60.2 103.6 60.6 103.8 61.3L108 72.4C108.3 73.1 107.9 73.9 107.2 74.1C107.1 74.2 106.9 74.2 106.8 74.2Z" fill="#000111"/>
<path d="M58 42.4C53.7 42.4 50.2 38.9 50.2 34.6C50.2 30.3 53.7 26.8 58 26.8C62.3 26.8 65.8 30.3 65.8 34.6C65.8 38.9 62.3 42.4 58 42.4ZM58 29.5C55.2 29.5 52.9 31.8 52.9 34.6C52.9 37.4 55.2 39.7 58 39.7C60.8 39.7 63.1 37.4 63.1 34.6C63.1 31.8 60.8 29.5 58 29.5Z" fill="#000111"/>
<path d="M80.8 42.4C76.5 42.4 73 38.9 73 34.6C73 30.3 76.5 26.8 80.8 26.8C85.1 26.8 88.6 30.3 88.6 34.6C88.5 38.9 85 42.4 80.8 42.4ZM80.8 29.5C78 29.5 75.7 31.8 75.7 34.6C75.7 37.4 78 39.7 80.8 39.7C83.6 39.7 85.9 37.4 85.9 34.6C85.8 31.8 83.6 29.5 80.8 29.5Z" fill="#000111"/>
<path d="M103.5 42.4C99.2 42.4 95.7 38.9 95.7 34.6C95.7 30.3 99.2 26.8 103.5 26.8C107.8 26.8 111.3 30.3 111.3 34.6C111.3 38.9 107.8 42.4 103.5 42.4ZM103.5 29.5C100.7 29.5 98.4 31.8 98.4 34.6C98.4 37.4 100.7 39.7 103.5 39.7C106.3 39.7 108.6 37.4 108.6 34.6C108.6 31.8 106.3 29.5 103.5 29.5Z" fill="#000111"/>
<path d="M192.2 340.4H62.7C62 340.3 61.4 339.7 61.5 338.9C61.6 338.2 62.1 337.7 62.7 337.7H192.2C192.9 337.6 193.6 338.2 193.7 338.9C193.8 339.6 193.2 340.3 192.5 340.4C192.4 340.4 192.3 340.4 192.2 340.4Z" fill="#000111"/>
<path d="M192.2 350.4H62.7C62 350.3 61.4 349.7 61.5 348.9C61.6 348.2 62.1 347.7 62.7 347.7H192.2C192.9 347.6 193.6 348.2 193.7 348.9C193.8 349.6 193.2 350.3 192.5 350.4C192.4 350.4 192.3 350.4 192.2 350.4Z" fill="#000111"/>
<path d="M192.2 360.4H62.7C62 360.4 61.4 359.8 61.4 359.1C61.4 358.4 62 357.8 62.7 357.8H192.2C192.9 357.8 193.5 358.4 193.5 359.1C193.5 359.8 193 360.4 192.2 360.4Z" fill="#000111"/>
<path d="M198.8 132C207.139 132 213.9 125.24 213.9 116.9C213.9 108.561 207.139 101.8 198.8 101.8C190.46 101.8 183.7 108.561 183.7 116.9C183.7 125.24 190.46 132 198.8 132Z" fill="#FED490"/>
<path d="M178.3 139.9C184.099 139.9 188.8 135.199 188.8 129.4C188.8 123.601 184.099 118.9 178.3 118.9C172.501 118.9 167.8 123.601 167.8 129.4C167.8 135.199 172.501 139.9 178.3 139.9Z" fill="url(#paint1_linear_1_2)"/>
<path d="M284 473.7V475.3C284 483.4 290.6 490 298.7 490H458.6C466.7 490 473.3 483.4 473.3 475.3V136.2C473.3 128.1 466.7 121.5 458.7 121.5H457.6L284 473.7Z" fill="url(#paint2_linear_1_2)"/>
<path d="M281.9 95.2H431.2C445.7 95.2 457.5 107 457.5 121.5V447.4C457.5 461.9 445.7 473.7 431.2 473.7H281.9C267.4 473.7 255.6 461.9 255.6 447.4V121.5C255.5 107 267.3 95.2 281.9 95.2Z" fill="#FED490"/>
<path d="M286.7 127.6C282.4 127.6 278.9 124.1 278.9 119.8C278.9 115.5 282.4 112 286.7 112C291 112 294.5 115.5 294.5 119.8C294.5 124.1 291 127.5 286.7 127.6ZM286.7 114.7C283.9 114.7 281.6 117 281.6 119.8C281.6 122.6 283.9 124.9 286.7 124.9C289.5 124.9 291.8 122.6 291.8 119.8C291.8 116.9 289.5 114.7 286.7 114.7Z" fill="#000111"/>
<path d="M309.5 127.6C305.2 127.6 301.7 124.1 301.7 119.8C301.7 115.5 305.2 112 309.5 112C313.8 112 317.3 115.5 317.3 119.8C317.3 124.1 313.8 127.5 309.5 127.6ZM309.5 114.7C306.7 114.7 304.4 117 304.4 119.8C304.4 122.6 306.7 124.9 309.5 124.9C312.3 124.9 314.6 122.6 314.6 119.8C314.6 117 312.3 114.7 309.5 114.7Z" fill="#000111"/>
<path d="M332.3 127.6C328 127.6 324.5 124.1 324.5 119.8C324.5 115.5 328 112 332.3 112C336.6 112 340.1 115.5 340.1 119.8C340.1 124.1 336.6 127.5 332.3 127.6ZM332.3 114.7C329.5 114.7 327.2 117 327.2 119.8C327.2 122.6 329.5 124.9 332.3 124.9C335.1 124.9 337.4 122.6 337.4 119.8C337.4 117 335.1 114.7 332.3 114.7Z" fill="#000111"/>
<path d="M298.9 179.7C304.589 179.7 309.2 175.089 309.2 169.4C309.2 163.711 304.589 159.1 298.9 159.1C293.211 159.1 288.6 163.711 288.6 169.4C288.6 175.089 293.211 179.7 298.9 179.7Z" fill="white"/>
<path d="M325.8 163.3H414.4C417.8 163.3 420.5 166 420.5 169.4C420.5 172.8 417.8 175.5 414.4 175.5H325.8C322.4 175.5 319.7 172.8 319.7 169.4C319.7 166 322.4 163.3 325.8 163.3Z" fill="white"/>
<path d="M298.9 215.8C304.589 215.8 309.2 211.189 309.2 205.5C309.2 199.811 304.589 195.2 298.9 195.2C293.211 195.2 288.6 199.811 288.6 205.5C288.6 211.189 293.211 215.8 298.9 215.8Z" fill="white"/>
<path d="M325.8 199.3H414.4C417.8 199.3 420.5 202 420.5 205.4C420.5 208.8 417.8 211.5 414.4 211.5H325.8C322.4 211.5 319.7 208.8 319.7 205.4C319.7 202.1 322.4 199.3 325.8 199.3Z" fill="white"/>
<path d="M298.9 251.8C304.589 251.8 309.2 247.189 309.2 241.5C309.2 235.811 304.589 231.2 298.9 231.2C293.211 231.2 288.6 235.811 288.6 241.5C288.6 247.189 293.211 251.8 298.9 251.8Z" fill="white"/>
<path d="M325.8 235.4H414.4C417.8 235.4 420.5 238.1 420.5 241.5C420.5 244.9 417.8 247.6 414.4 247.6H325.8C322.4 247.6 319.7 244.9 319.7 241.5C319.7 238.1 322.4 235.4 325.8 235.4Z" fill="white"/>
<path d="M421 274.6H291.5C290.8 274.6 290.2 274 290.2 273.3C290.2 272.6 290.8 272 291.5 272H421C421.7 272 422.3 272.6 422.3 273.3C422.3 274 421.7 274.6 421 274.6Z" fill="#000111"/>
<path d="M421 284.6H291.5C290.8 284.5 290.2 283.9 290.3 283.1C290.4 282.4 290.9 281.9 291.5 281.9H421C421.7 281.8 422.4 282.4 422.5 283.1C422.6 283.8 422 284.5 421.3 284.6C421.2 284.6 421.1 284.6 421 284.6Z" fill="#000111"/>
<path d="M421 294.6H291.5C290.8 294.5 290.2 293.9 290.3 293.1C290.4 292.4 290.9 291.9 291.5 291.9H421C421.7 291.8 422.4 292.4 422.5 293.1C422.6 293.8 422 294.5 421.3 294.6C421.2 294.6 421.1 294.6 421 294.6Z" fill="#000111"/>
<path d="M291.8 324.1V417.6C291.8 426.8 299.3 434.2 308.4 434.2H411.4C420.6 434.2 428.1 426.7 428.1 417.6V323C428.1 313.8 420.6 306.3 411.5 306.3C411.4 306.3 411.4 306.3 411.3 306.3L308.3 307.4C299.2 307.6 291.8 315 291.8 324.1Z" fill="url(#paint3_linear_1_2)"/>
<path d="M402.3 424.1H317.7C309.4 424.1 302.7 417.4 302.7 409.1V332.3C302.7 324.1 309.3 317.4 317.6 317.3L402.2 316.4H402.4C410.7 316.4 417.4 323.1 417.4 331.4V409.1C417.3 417.4 410.6 424.1 402.3 424.1C402.3 424.2 402.3 424.2 402.3 424.1ZM402.3 319.1H402.2L317.6 320C310.9 320.1 305.4 325.6 305.4 332.3V409.1C305.4 415.9 310.9 421.4 317.7 421.4H402.3C409.1 421.4 414.6 415.9 414.6 409.1V331.4C414.6 324.6 409.1 319.1 402.3 319.1Z" fill="white"/>
<path d="M437.9 121.1H348C347.3 121 346.7 120.4 346.8 119.6C346.9 118.9 347.4 118.4 348 118.4H437.9C438.6 118.5 439.2 119.1 439.1 119.9C439.1 120.5 438.6 121 437.9 121.1Z" fill="#000111"/>
<path d="M332.4 401C331.6 401 330.8 400.9 330 400.5C326.5 399 326.5 396.5 326.7 395.2C327.8 389.9 338.4 382.1 354.8 375.3C363 361.4 368.4 345.5 365.1 338.5C363.7 335.7 361 334.5 356.8 334.8C327.3 337.3 306.2 365.1 306 365.3C305.6 365.9 304.7 366 304.1 365.6C303.5 365.2 303.4 364.3 303.8 363.7C304.7 362.5 325.9 334.7 356.6 332.1C363.3 331.5 366.3 334.6 367.6 337.3C371.3 345.1 366.4 360.2 358.9 373.7C381 365.5 404.4 361.3 428 361.3C428.7 361.2 429.4 361.8 429.5 362.5C429.6 363.2 429 363.9 428.3 364C428.2 364 428.1 364 428.1 364C403.7 364.1 379.5 368.7 356.7 377.6C353.4 383.2 349.5 388.4 345.1 393.1C340.2 398.4 335.8 401 332.4 401ZM352.3 379.5C338.7 385.5 330.2 391.8 329.4 395.7C329.3 396.2 329.1 397.2 331.1 398C333.7 399.1 338.1 396.7 343.1 391.3C346.5 387.7 349.6 383.7 352.3 379.5Z" fill="white"/>
<path d="M334.1 347.6C337.911 347.6 341 344.511 341 340.7C341 336.889 337.911 333.8 334.1 333.8C330.289 333.8 327.2 336.889 327.2 340.7C327.2 344.511 330.289 347.6 334.1 347.6Z" fill="white"/>
<path d="M103.875 296.219L105.234 292.844H116.766L118.125 296.219H103.875ZM101.25 302.969L102.562 299.594H119.391L120.844 302.969H101.25ZM98.625 309.719L99.9375 306.344H122.062L123.469 309.719H98.625ZM71.2031 319H67.5469L98.25 241.375H101.906L132.562 319H128.953L100.078 245.922L71.2031 319ZM100.5 253.938L102.422 258.25L78.4219 319H74.8125L100.5 253.938ZM104.25 262.844L106.031 267.484L85.7344 319H82.0781L104.25 262.844ZM107.812 272.125L109.594 276.859L92.9531 319H89.3438L107.812 272.125ZM154.359 319H150.703L120.047 241.375H123.656L154.359 319ZM116.391 241.375L147.094 319H143.484L112.781 241.375H116.391ZM109.125 241.375L139.828 319H136.172L105.516 241.375H109.125ZM180.516 241.375H183.891V319H180.516V241.375ZM173.766 241.375H177.141V319H173.766V241.375ZM167.016 241.375H170.391V319H167.016V241.375ZM160.266 241.375H163.641V319H160.266V241.375Z" fill="white"/>
<defs>
<linearGradient id="paint0_linear_1_2" x1="-5.65721" y1="9.5481" x2="161.973" y2="247.948" gradientUnits="userSpaceOnUse">
<stop stop-color="#C9FAD6"/>
<stop offset="1" stop-color="#00A76F"/>
</linearGradient>
<linearGradient id="paint1_linear_1_2" x1="189.901" y1="107.621" x2="164.511" y2="155.351" gradientUnits="userSpaceOnUse">
<stop stop-color="#0A6B5B"/>
<stop offset="0.78" stop-color="#005146"/>
<stop offset="0.91" stop-color="#005045"/>
</linearGradient>
<linearGradient id="paint2_linear_1_2" x1="551.259" y1="104.64" x2="351.719" y2="534.05" gradientUnits="userSpaceOnUse">
<stop stop-color="#0A6B5B"/>
<stop offset="0.78" stop-color="#005146"/>
<stop offset="0.91" stop-color="#005045"/>
</linearGradient>
<linearGradient id="paint3_linear_1_2" x1="421.09" y1="231.25" x2="312.83" y2="478.59" gradientUnits="userSpaceOnUse">
<stop stop-color="#C9FAD6"/>
<stop offset="1" stop-color="#00A76F"/>
</linearGradient>
</defs>
</svg>
