<svg xmlns="http://www.w3.org/2000/svg" id="Layer_1" data-name="Layer 1" viewBox="0 0 400 300" data-imageid="flying-kite-two-color" imageName="Flying kite" class="illustrations_image" style="width: 215px;"><title>_</title><path d="M298.5,56.38c35.23,12.07,68.79,45.16,69.81,87.88s-10.65,86.24-74.84,103.11C233.18,263.22,90,269,51.89,215.85c-36-50.06-24.55-131.33,38.33-157.32C134.29,40.31,229.69,32.83,298.5,56.38Z" fill="#e6e6e6" opacity="0.3"/><path d="M328.34,95.94a6.63,6.63,0,0,0-6.63-6.63,6.26,6.26,0,0,0-1.07.1,8.93,8.93,0,0,0-7.87-4.71l-.33,0a10.47,10.47,0,0,0,.33-2.57,10.61,10.61,0,1,0-21.21,0,11,11,0,0,0,.32,2.57l-.32,0a8.94,8.94,0,1,0,0,17.87h31v-.06A6.63,6.63,0,0,0,328.34,95.94Z" fill="#e6e6e6" opacity="0.49"/><ellipse cx="206.43" cy="274.82" rx="141.98" ry="7.12" fill="#e6e6e6" opacity="0.45"/><path d="M282.62,112.39c-.1.41,8.95,22.24,18.11,21.51s13.75-16.74,28.08-10.11,28.86,1.28,28.86,1.28l-6.82,14.18A71.79,71.79,0,0,1,334,138.5c-9-1.5-12.26-9.91-18.23-4.54s-12.52,11.84-21.11,9.77S282.62,112.39,282.62,112.39Z" fill="#ffd200"/><path d="M299.81,58.73s3.2,10.8,8.77,8.29,8.15-7.56,11.54-4.39L322.29,56s-6.42-2.71-9.19.47-4.62,7.81-6.49,7.05S299.81,58.73,299.81,58.73Z" fill="#ffd200"/><path d="M240.86,76l-.32-.28c-.09,1.86-1.25,4.52-6,7.09C225.69,87.63,225.35,96,225.35,96l7.66.92s-4.15-7,1.93-10.45c4.92-2.77,6.73-6.53,6-10.47Z" fill="#ffd200"/><path d="M282.62,112.39c-.1.41,8.95,22.24,18.11,21.51s13.75-16.74,28.08-10.11,28.86,1.28,28.86,1.28l-6.82,14.18A71.79,71.79,0,0,1,334,138.5c-9-1.5-12.26-9.91-18.23-4.54s-12.52,11.84-21.11,9.77S282.62,112.39,282.62,112.39Z" opacity="0.08"/><path d="M299.81,58.73s3.2,10.8,8.77,8.29,8.15-7.56,11.54-4.39L322.29,56s-6.42-2.71-9.19.47-4.62,7.81-6.49,7.05S299.81,58.73,299.81,58.73Z" opacity="0.08"/><path d="M240.86,76l-.32-.28c-.09,1.86-1.25,4.52-6,7.09C225.69,87.63,225.35,96,225.35,96l7.66.92s-4.15-7,1.93-10.45c4.92-2.77,6.73-6.53,6-10.47Z" opacity="0.08"/><polygon points="285.89 122.42 239.92 75.58 263.26 40.19 301.42 58.65 285.89 122.42" fill="#ffd200"/><path d="M300.65,59.3S267,56.21,240.92,75.74" fill="none" stroke="#fff" stroke-linecap="round" stroke-miterlimit="10"/><line x1="263.59" y1="41.37" x2="285.57" y2="121.24" fill="none" stroke="#fff" stroke-linecap="round" stroke-miterlimit="10"/><polyline points="266.49 51.92 252.38 75.52 274.81 83.71" fill="none" stroke="#24285b" stroke-linecap="round" stroke-miterlimit="10"/><path d="M252.38,75.52S142.12,133.74,81.05,121.8" fill="none" stroke="#24285b" stroke-linecap="round" stroke-miterlimit="10"/><path d="M148.37,154.19,130.92,158a31.65,31.65,0,0,1-33.49-14.08L85.07,124.23l-6.84,2.87,9.12,22.69a54.31,54.31,0,0,0,47.43,34l24,1.31Z" fill="#14b8a6" class="target-color"/><path d="M148.37,154.19,130.92,158a31.65,31.65,0,0,1-33.49-14.08L85.07,124.23l-6.84,2.87,9.12,22.69a54.31,54.31,0,0,0,47.43,34l24,1.31Z" fill="#fff" opacity="0.46"/><path d="M174.73,253.33s2.33,3.1.77,6,.65,5.39,3,3.38,3.32-10.49,3.32-10.49l-5.19-3.08Z" fill="#14b8a6" class="target-color"/><path d="M222.43,266.65s3.5,1.64,3.47,5,3.09,4.46,4.2,1.59-1.95-10.82-1.95-10.82l-6-.3Z" fill="#14b8a6" class="target-color"/><path d="M148.34,216.72,170,240.05a85.11,85.11,0,0,0,41.57,24.65L222,267.34l1.18-5.74-15.83-9.25a44.74,44.74,0,0,1-15-14.32l-13.3-20.6Z" fill="#24285b"/><path d="M148.34,216.72,170,240.05a85.11,85.11,0,0,0,41.57,24.65L222,267.34l1.18-5.74-15.83-9.25a44.74,44.74,0,0,1-15-14.32l-13.3-20.6Z" opacity="0.08"/><path d="M150.29,135a26.15,26.15,0,0,1,2.94,6.4,2.12,2.12,0,0,1-1.6,2.55,4.68,4.68,0,0,1-4.89-1.44l-2.83-2.7a3.8,3.8,0,0,1-.39-4.38C144.85,132.81,149,132.76,150.29,135Z" fill="#f4a28c"/><polygon points="145.74 140.09 144.41 153.91 152.09 154.1 149.97 143.96 145.74 140.09" fill="#f4a28c"/><path d="M149.44,135.65a16.83,16.83,0,0,1-3.6,1.53,3.53,3.53,0,0,1,1.78,3.44,2.87,2.87,0,0,1-2.55,2.62l-2.45-4.86a4.3,4.3,0,0,1,.17-4.42,14.31,14.31,0,0,1,1.21-1.63c1.1-1.28,3.62-1.41,4.38-3a1,1,0,0,1,1.74-.15c1,1.36,1.92,3.81.35,5.64A4.13,4.13,0,0,1,149.44,135.65Z" fill="#24285b"/><path d="M148,140.3s-.78-1.43-1.81-.76.08,2.76,1.66,2.19Z" fill="#f4a28c"/><path d="M151.61,137.34l1.8.9a.68.68,0,0,1,.11,1.14l-1.3,1Z" fill="#f4a28c"/><path d="M149.87,144.3a5,5,0,0,1-2.78-.78s.15,2.57,3.5,4.25Z" fill="#ce8172" opacity="0.31"/><path d="M144.12,152.27l7.66.4s40.07-2.87,40.9,21-2.91,38.73-2.91,38.73l-28.12,7.17S97.22,176.45,144.12,152.27Z" fill="#14b8a6" class="target-color"/><path d="M157.68,169.87s-6.23,9.41,8.6,15.92,12.68,17,2.38,15.5-24.18-10.08-26.37,1.87c0,0,10.15,10.54,19.36,16.4l28.12-7.17.35-1.58L196,188.9l-10.64-15.49Z" opacity="0.08"/><path d="M157.55,162.94a13.53,13.53,0,0,1,17-8.09c9.51,3.12,23.38,10.52,27,27.55,5.65,26.63-4,40.52-52,15l2.56-5.44s33.62,11.22,33.79-.05C186.11,182.36,151.93,178.87,157.55,162.94Z" fill="#14b8a6" class="target-color"/><path d="M157.55,162.94a13.53,13.53,0,0,1,17-8.09c9.51,3.12,23.38,10.52,27,27.55,5.65,26.63-4,40.52-52,15l2.56-5.44s33.62,11.22,33.79-.05C186.11,182.36,151.93,178.87,157.55,162.94Z" fill="#fff" opacity="0.46"/><path d="M189.77,212.39s-50.82-4-51.21,8.88,36.35,33.37,36.35,33.37l4.38-5.57-21.74-23.53S198.6,244.73,189.77,212.39Z" fill="#24285b"/><path d="M78.23,127.1s-3.07-6.7.56-9.18,6.28,6.31,6.28,6.31Z" fill="#f4a28c"/><path d="M79.39,123.42S77.86,161.9,93.18,188.7,146.86,190,146.86,190L134,215" fill="none" stroke="#24285b" stroke-linecap="round" stroke-miterlimit="10"/><path d="M152.18,191.93s-3.79-5.65-7.21-5.64-2.93,7.21,4.65,11.08Z" fill="#f4a28c"/><path d="M118.49,89.82a6.35,6.35,0,0,0-6.35-6.35,5.69,5.69,0,0,0-1,.09,8.56,8.56,0,0,0-7.55-4.51h-.31a10,10,0,0,0,.31-2.46,10.16,10.16,0,0,0-20.32,0,10.49,10.49,0,0,0,.31,2.46h-.31a8.56,8.56,0,0,0,0,17.12H113v-.06A6.34,6.34,0,0,0,118.49,89.82Z" fill="#e6e6e6"/><path d="M284.44,171.34a6.05,6.05,0,0,0-6.05-6.05,6.25,6.25,0,0,0-1,.09,8.12,8.12,0,0,0-7.18-4.29H270a10,10,0,0,0,.29-2.34,9.67,9.67,0,0,0-19.34,0,9.5,9.5,0,0,0,.3,2.34h-.3a8.15,8.15,0,1,0,0,16.29h28.28v0A6.05,6.05,0,0,0,284.44,171.34Z" fill="#e6e6e6" opacity="0.49"/><path d="M301.71,275.33s5.59-8-2.75-10.26,2-13-5.75-14.47-6.48,10-6.48,10-5.36-4.62-9.05-.74,1.47,8.14,1.47,8.14-7.47,2.58-2.81,7.29Z" fill="#e6e6e6"/><path d="M290.49,276.4s3.56-6.07,8.79-5.32S304,276.4,304,276.4Z" fill="#c9c9c9"/><polygon points="99.66 275.77 93.98 261.28 100.23 266.68 99.66 256.02 107.42 266.39 107.42 255.17 115 275.77 99.66 275.77" fill="#e6e6e6"/></svg>