<svg transform="scale(1)" version="1.1" id="Layer_1" xmlns="http://www.w3.org/2000/svg"
  xmlns:xlink="http://www.w3.org/1999/xlink" x="0px" y="0px" viewBox="0 0 500 500" xml:space="preserve"
  class="show_show__wrapper__graphic__5Waiy ">
  <title>React</title>
  <style type="text/css">
    .st0 {
      fill: #FEF1E0;
    }

    .st1 {
      fill: #e8c338;
    }

    .st2 {
      fill: url(#SVGID_1_);
    }

    .st3 {
      fill: #FED490;
    }

    .st4 {
      fill: url(#SVGID_00000046338645063766340580000009396780531971678611_);
    }

    .st5 {
      fill: #ffd6bf;
    }

    .st6 {
      fill: #000111;
    }

    .st7 {
      fill: #D88260;
    }

    .st8 {
      fill: url(#SVGID_00000003069178475972146980000006615195285117944510_);
    }

    .st9 {
      fill: url(#SVGID_00000163773998012716656690000013194140622355387280_);
    }

    .st10 {
      fill: url(#SVGID_00000137813763245683771070000015359037317612138409_);
    }

    .st11 {
      fill: url(#SVGID_00000061430426844328768440000000993632323851683714_);
    }

    .st12 {
      fill: url(#SVGID_00000039833296746424096820000017422190754417104524_);
    }
  </style>
  <g id="paper_00000039837139978815163810000002684931259336909246_">
    <path class="st0" id="paper" d="M213.1,43.9l256.3,16.3c0,0,44,81.4,3.4,125c-51.5,55.2-103.1,154-51.4,190.4L120,356.4
		c0,0-5.1-112,73.1-176.8C267.3,118.2,213.1,43.9,213.1,43.9z"></path>
    <g id="sign_00000013888654478627404050000007724702014540239493_">
      <path class="st1" id="sign" d="M421.3,123.3c-15.9,0-35.1-4.1-47.7-12.4c-12.4-8.2-28.7-9.8-41.6-8c-1.9,3.5-4.5,6.5-7.6,8.9
			c-5.7,4.7-13.3,8.4-16.4,6.2c-1-0.7-1.8-2.2-0.6-5.2c1.8-4.4,7.2-8.2,15.2-10.7c2.5-0.8,5-1.3,7.5-1.8c1-2.2,1-4.7,0-6.8
			c-1.8-3.9-7.8-4.4-12.5-4.2c-7.6,0.3-16.7,2.8-24.7,6c-0.3,4.3-2.9,8.7-7.6,12.4c-4.5,3.6-10.7,6.2-13.5,4.2
			c-0.8-0.6-1.9-2-0.8-4.9c1.6-4.3,9.5-9.5,19.1-13.6c-0.1-0.8-0.3-1.5-0.6-2.2c-0.6-1.6-2-2.8-3.6-3.2c-8.4-2.3-26.6,9.1-32.9,13.7
			c-0.6,0.5-1.5,0.3-1.9-0.3c-0.5-0.6-0.3-1.5,0.3-1.9c1-0.7,23.9-17.2,35.2-14.1c2.5,0.6,4.5,2.4,5.5,4.8c0.3,0.7,0.5,1.5,0.7,2.3
			c8.2-3.2,17.3-5.5,24.7-5.8c7.9-0.3,13.1,1.7,15.1,5.8c1.1,2.4,1.3,5.1,0.5,7.6c13.3-1.7,29.4,0.3,41.9,8.7
			c15.5,10.3,50.5,16.3,66.4,8.6c3.5-1.7,5.4-3.9,5.7-6.6c0.1-0.8,0.8-1.3,1.5-1.2c0.7,0.1,1.3,0.7,1.2,1.5
			c-0.3,3.6-2.8,6.7-7.2,8.8C437.7,122.1,430,123.3,421.3,123.3z M328.4,103.5c-1.7,0.3-3.4,0.8-5,1.3c-7.1,2.2-12,5.5-13.5,9.1
			c-0.5,1.2-0.4,1.8-0.3,1.9c1.1,0.8,6.8-1,13-6.1C324.9,107.9,326.8,105.8,328.4,103.5z M290.1,96.5c-8.5,3.7-15.2,8.2-16.4,11.5
			c-0.4,1-0.3,1.6-0.2,1.7c0.9,0.7,5.3-0.2,10.2-4.1C285.2,104.3,289.1,100.8,290.1,96.5L290.1,96.5z"></path>
      <path class="st1" id="sign_00000031887320069911051180000009176035731651907757_" d="M305.3,176c-0.9,0-1.8-0.3-2.5-0.8
			c-0.8-0.7-1.6-2-0.8-4.6c1.2-4,7-8.7,15.5-12.5c1.9-0.9,4-1.7,6.2-2.5c0.4-1.6,0.6-3.2,0.6-4.8c0.1-1.1-0.4-2.2-1.4-2.9
			c-4-2.8-16,1.1-28.8,5.2c-14.4,4.6-30.8,9.9-42.2,7.9c-7.1-1.2-10.9-3.8-11.4-7.8c-1-8.3,13.9-18.5,14.9-18.9
			c0.7-0.3,1.5,0.1,1.8,0.8c0.2,0.7-0.1,1.4-0.7,1.7c-1.6,0.8-14.1,10.2-13.2,16.1c0.4,3.2,5.2,4.7,9.1,5.3
			c10.8,1.8,26.8-3.3,40.9-7.9c14.6-4.7,26.1-8.4,31.2-4.8c1.6,1.2,2.6,3,2.5,5c0.1,1.3,0,2.6-0.2,3.9c16.3-5,37.8-6.2,57.4,3.1
			c33.9,16.1,56.1,1.2,56.3,1c0.6-0.4,1.5-0.3,1.9,0.4c0.4,0.6,0.3,1.5-0.4,1.9l0,0c-0.9,0.7-23.6,16-59.1-0.8
			c-19.5-9.2-41.4-7.4-57-2.4c-2.8,7.9-10.1,14.1-15.3,16.7C308.9,175.3,307.1,175.9,305.3,176z M322.3,159.1
			c-1.3,0.5-2.6,1-3.8,1.6c-7.5,3.4-13,7.6-14,10.8c-0.3,1-0.2,1.6-0.1,1.7c0.4,0.3,2,0.3,4.8-1.1
			C314.8,169.1,319.4,164.6,322.3,159.1L322.3,159.1z"></path>
    </g>
    <g id="stamp">
      <linearGradient id="SVGID_1_" gradientUnits="userSpaceOnUse" x1="421.0511" y1="-164.3738" x2="346.0712"
        y2="-332.7638" gradientTransform="matrix(1 0 0 -1 0 4)">
        <stop offset="0" style="stop-color: rgb(0, 167, 111);"></stop>
        <stop offset="1" style="stop-color: rgb(0, 75, 81);"></stop>
      </linearGradient>
      <circle class="st2" cx="388" cy="242.6" r="77.8"></circle>
      <circle class="st3" cx="376.6" cy="236.9" r="77.8"></circle>
      <path class="st1" d="M359.3,277c-10.8,0-20.3-4.2-26.8-11.8s-9.2-18.1-7.5-29.1c3.6-22.3,24.7-40.4,47-40.4
			c10.8,0,20.3,4.2,26.8,11.8s9.2,18.1,7.5,29.1l-1.4-0.2l1.4,0.2C402.7,258.9,381.6,277,359.3,277z M372.1,198.5
			c-21,0-40.9,17.1-44.3,38.1c-1.7,10.2,0.8,19.7,6.8,26.8s14.7,10.8,24.7,10.8c21,0,40.9-17.1,44.3-38.1
			c1.6-10.2-0.8-19.7-6.8-26.9C390.8,202.3,382,198.5,372.1,198.5L372.1,198.5z"></path>
      <linearGradient id="SVGID_00000098919396358231427860000000894607945736491171_" gradientUnits="userSpaceOnUse"
        x1="380.5765" y1="-205.7166" x2="361.2865" y2="-274.4366" gradientTransform="matrix(1 0 0 -1 0 4)">
        <stop offset="0" style="stop-color: rgb(0, 167, 111);"></stop>
        <stop offset="1" style="stop-color: rgb(0, 75, 81);"></stop>
      </linearGradient>
      <path d="M361.2,258.3c-0.2,0-0.4,0-0.6,0
			c-1.8-0.2-3.4-1.2-4.2-2.8l-15-26.6c-1.6-2.6-0.8-6,1.8-7.6s6-0.8,7.6,1.8c0.1,0.1,0.1,0.2,0.2,0.3l11.2,19.8l49.6-56.6
			c2-2.3,5.5-2.5,7.8-0.5s2.5,5.5,0.5,7.8l-54.8,62.4C364.3,257.6,362.8,258.3,361.2,258.3z"
        style="fill: url(&quot;#SVGID_00000098919396358231427860000000894607945736491171_&quot;);"></path>
    </g>
  </g>
  <g id="light">
    <path class="st3" d="M167.5,209c-13.4,1-24.1,11.4-25.4,24.8c-1.3-13.3-12.1-23.8-25.5-24.8c13.4-1,24.1-11.4,25.5-24.8
		C143.4,197.6,154.2,208,167.5,209z"></path>
    <path class="st3" d="M112.1,194.1c-6.1,0.5-11,5.2-11.6,11.3c-0.6-6.1-5.5-10.9-11.6-11.3c6.1-0.5,11-5.2,11.6-11.3
		C101.1,188.9,106,193.6,112.1,194.1z"></path>
    <path class="st3" d="M439.4,331.3c-6.1,0.5-11,5.2-11.6,11.3c-0.6-6.1-5.5-10.9-11.6-11.3c6.1-0.5,11-5.2,11.6-11.3
		C428.4,326.1,433.3,330.9,439.4,331.3L439.4,331.3z"></path>
  </g>
  <g id="woman">
    <path class="st5" d="M237.7,348.2c0,0,65.5,107.9,123.3,91.3l-6.3-77.7l-65.5-43.1L237.7,348.2z"></path>
    <path class="st1" d="M239.5,237.1c-2,0-4.3-1-6.8-3.1c-7.4-6.7-12.5-15.5-14.6-25.3c-0.7-4.6,0.1-7.8,2.4-9.2s5.5-0.4,9.1,2.5
		c7.4,6.7,12.5,15.5,14.6,25.3c0.7,4.6-0.1,7.8-2.4,9.2C241.1,236.9,240.3,237.1,239.5,237.1z M222.9,201.8c-0.3,0-0.7,0.1-1,0.2
		c-1.2,0.7-1.6,3.1-1.1,6.3c2,9.1,6.7,17.3,13.6,23.6c2.6,2.1,4.8,2.9,6,2.2s1.6-3.1,1.1-6.3c-2-9.1-6.7-17.3-13.6-23.6
		C225.9,202.6,224.1,201.8,222.9,201.8z"></path>
    <path class="st6" d="M194.4,246.8c26.4-11,21.8-36,21.9-36.3c-16.6-7-35.7,0.7-42.7,17.3c-1,2.4-1.7,4.9-2.2,7.4
		c-2.3,14.1-16,19.4-42.2,19c-29.3-0.4-38.8,13.3-48,30.5c-22.6,42.1,8.9,87.7,89.1,71.6c42.2-8.5,41.8-51.1,31.4-83.4
		c1.3-3.1-0.6-6-3-8.2c-2.9-7.6-6.6-14.8-11-21.6C190.2,243.6,192.6,244.9,194.4,246.8z"></path>
    <path class="st5"
      d="M224.4,265.6c-6.4,5.3-14.5,7.9-22.8,7.4c3.1-6.8-9.1-12.6-9.1-12.6c-7,4.9-18.4-8.6-11.9-15
		s13.8,1.3,13.8,1.3c26.4-11,21.8-36,21.9-36.3c16.6,7,24.4,26.1,17.3,42.7C231.6,257.9,228.4,262.2,224.4,265.6L224.4,265.6z"></path>
    <ellipse class="st5" transform="matrix(0.9114 -0.4115 0.4115 0.9114 -72.1344 116.931)" cx="235.5" cy="226" rx="10.1"
      ry="4.5"></ellipse>
    <path class="st7"
      d="M191.5,254.1c-0.2,0.1-0.4,0.3-0.6,0.4c-0.4,0.2,0.1,0-0.1,0.1l-0.4,0.1c0,0-0.4,0.1-0.2,0.1s-0.2,0-0.2,0
		h-0.4c-0.1,0-0.3-0.1-0.1,0c-0.7-0.1-1.4-0.5-1.8-1.2l-0.1-0.2c-0.2-0.3,0,0.2-0.1-0.2c0-0.1,0-0.2-0.1-0.3c0,0-0.1-0.4,0-0.2
		c0-0.2,0-0.5,0-0.7c0,0.1,0,0,0,0l0.1-0.3c0-0.1,0.1-0.3,0-0.1c0-0.1,0.1-0.2,0.2-0.3c0.1-0.1,0.1-0.2,0.2-0.3
		c0.2-0.4-0.1,0.1,0.1-0.1c0.1-0.1,0.2-0.2,0.2-0.2s0.3-0.2,0.2-0.2c0.1,0,0.4-0.2,0.6-0.3c0.7-0.4,0.9-1.2,0.5-1.9
		c-0.1-0.1-0.1-0.2-0.2-0.3c-1.6-1.9-4.5-2.2-6.4-0.5c-1.3,1.1-1.9,2.9-1.5,4.6c0.2,0.7,1,1.2,1.7,1s1.2-1,1-1.7l0,0l-0.1-0.2
		c0,0.1,0,0.1,0,0s0-0.3,0-0.4c0,0.3,0.1-0.2,0.1-0.3s0.2-0.4,0.1-0.2c0.1-0.2,0.2-0.3,0.3-0.4c-0.1,0.2,0.1-0.1,0.1-0.1
		s0.3-0.3,0.2-0.2h0.1l0.3-0.3c-0.2,0.1,0.1,0,0.2-0.1c0.1,0,0.2,0,0.2-0.1c-0.1,0-0.1,0,0,0h0.4c0.2,0,0.2,0,0,0h0.3
		c0.1,0,0.3,0.1,0.4,0.1c-0.2-0.1,0.2,0.1,0.2,0.1s0.3,0.3,0.1,0.1c0.1,0.1,0.3,0.2,0.4,0.4l0.3-2.2c-2.6,1.3-3.7,4.4-2.5,7
		c1.3,2.6,4.4,3.7,7,2.5c0.3-0.1,0.6-0.3,0.8-0.5c0.6-0.4,0.8-1.2,0.5-1.9C193,253.9,192.1,253.6,191.5,254.1L191.5,254.1z"></path>
    <path class="st7" d="M233.6,230.8c-0.2,0.1-0.4,0.1-0.6,0.2l-0.4,0.1h-0.1h0.1c-0.1,0-0.2,0-0.4,0h-0.9H231c-0.1,0-0.5-0.1-0.1,0
		c-0.2,0-0.4-0.1-0.6-0.1s-0.4-0.1-0.6-0.2l-0.2-0.1c-0.1,0-0.5-0.2-0.1,0c-0.3-0.2-0.7-0.2-1.1-0.1c-0.3,0.1-0.6,0.3-0.8,0.6
		s-0.2,0.7-0.1,1.1c0.1,0.3,0.3,0.6,0.6,0.8c1,0.4,2.1,0.7,3.2,0.8c1,0.1,2-0.1,3-0.4c0.7-0.3,1.1-1.1,0.8-1.8
		C235,231,234.3,230.7,233.6,230.8L233.6,230.8z"></path>
    <path class="st7" d="M229.7,248.5c-1.3,0-2.6-0.3-3.8-1c-0.6-0.4-0.8-1.3-0.3-1.9c0.4-0.5,1.1-0.7,1.7-0.4c0.4,0.2,3.9,2.1,7.2-2.1
		c0.5-0.6,1.4-0.6,1.9-0.1s0.6,1.2,0.2,1.8C235.1,247,232.5,248.4,229.7,248.5z"></path>
    <path class="st6" d="M215.7,235.4c-0.7,0-1.3-0.6-1.4-1.3c-0.3-3.5,0.6-6.1,2.4-7.8c1.8-1.4,4.2-2,6.5-1.6c0.8,0.1,1.3,0.8,1.2,1.6
		s-0.8,1.3-1.6,1.2c-0.1,0-0.1,0-0.2,0c-1.5-0.3-2.9,0.1-4.1,0.9c-1.2,1-1.7,2.9-1.5,5.5C217.1,234.7,216.5,235.3,215.7,235.4
		L215.7,235.4z"></path>
    <path class="st1" d="M229.5,243c-2,0-4.3-1.1-6.8-3.1c-7.4-6.7-12.5-15.5-14.6-25.3c-0.7-4.6,0.1-7.8,2.4-9.2s5.5-0.4,9.1,2.5
		c7.4,6.7,12.5,15.5,14.6,25.3c0.7,4.6-0.1,7.8-2.4,9.2C231.2,242.8,230.4,243,229.5,243z M212.9,207.6c-0.3,0-0.7,0.1-1,0.2
		c-1.2,0.7-1.6,3-1.1,6.3c2,9.1,6.7,17.3,13.6,23.6c2.6,2.1,4.8,2.9,6,2.2s1.6-3,1.1-6.3c-0.9-4.5-2.6-8.9-5-12.9l0,0
		c-2.2-4-5.2-7.7-8.6-10.7C216,208.5,214.2,207.7,212.9,207.6L212.9,207.6z"></path>
    <path class="st6" d="M77.8,317.2c-0.6,0-1.1-0.4-1.3-0.9c-7.7-20.8-7.2-38.2,1.6-50.2c10.8-14.8,33.4-21.6,67.2-20
		c12.9,0.6,22.2-1.9,27.6-7.4c3-3,4.7-7.1,4.7-11.3c0-0.8,0.6-1.4,1.3-1.4s1.3,0.5,1.4,1.2c0.1,5-1.9,9.9-5.4,13.4
		c-5.9,6.1-15.9,8.9-29.7,8.3c-32.8-1.5-54.7,4.9-64.9,18.9c-8.2,11.2-8.6,27.7-1.3,47.6c0.3,0.7-0.1,1.5-0.8,1.8l0,0
		C78,317.2,77.9,317.2,77.8,317.2z"></path>
    <path class="st5"
      d="M118,327.8l-73.7,92.8l2.9,32.8c0,0,32.2,2.4,64.2-26.6c19.5-17.6,51.1-60.1,51.1-60.1l-6.6-25.5L118,327.8z">
    </path>
    <linearGradient id="SVGID_00000021819618181696619440000015636439713122289804_" gradientUnits="userSpaceOnUse"
      x1="144.9557" y1="-264.9603" x2="142.0757" y2="-402.0803" gradientTransform="matrix(1 0 0 -1 0 4)">
      <stop offset="0" style="stop-color: rgb(0, 167, 111);"></stop>
      <stop offset="1" style="stop-color: rgb(0, 75, 81);"></stop>
    </linearGradient>
    <path d="M170.2,291.7c-8.8-0.7-17.5,1.9-24.5,7.3
		c-11.9,9-27.7,28.7-27.7,28.7l33.6,14.7L170.2,291.7z"
      style="fill: url(&quot;#SVGID_00000021819618181696619440000015636439713122289804_&quot;);"></path>
    <linearGradient id="SVGID_00000177451479238322131230000005898747117236513203_" gradientUnits="userSpaceOnUse"
      x1="249.8074" y1="-267.06" x2="246.9274" y2="-404.35" gradientTransform="matrix(1 0 0 -1 0 4)">
      <stop offset="0" style="stop-color: rgb(0, 167, 111);"></stop>
      <stop offset="1" style="stop-color: rgb(0, 75, 81);"></stop>
    </linearGradient>
    <path d="M222,291.4c0,0,16.7-0.2,26.3,7.6
		c11.6,9.4,27.7,28.7,27.7,28.7l-46.1,24.9L222,291.4z"
      style="fill: url(&quot;#SVGID_00000177451479238322131230000005898747117236513203_&quot;);"></path>
    <path class="st5" d="M63.8,310.4c0,0-107,139-19.1,143c53.9,2.4,55.6-119.8,55.6-119.8S92.8,293.3,63.8,310.4z"></path>
    <path class="st5" d="M83.8,288.5c0,0,16-10.1,24.6-10.8s18.2,12.2,20.3,19s-5.6,9.7-5.6,9.7s5.4,2.9,3.4,11.4s-6.8,10.2-6.8,10.2
		s1.3,11.5-5.1,16.4c0.5,0.2-2.7,10.8-18.8,10c-17-0.9-31.1-1.9-36.2-7S52.8,309.9,83.8,288.5z"></path>
    <path class="st5"
      d="M74.2,299c-0.3-8-0.3-16.1,0.2-24.1c0.8-13.3,8.1-15.6,13.3-14.6s11.8,14.7,11.9,23.5S79.6,300.7,74.2,299z">
    </path>
    <path class="st7" d="M75.7,296.5c-0.3,0-0.5-0.1-0.7-0.2c-0.6-0.4-0.8-1.3-0.4-1.9c6.1-9.8,23.6-15.9,24.4-16.1
		c0.7-0.2,1.5,0.1,1.8,0.9c0.2,0.7-0.1,1.5-0.8,1.7l0,0c-0.2,0.1-17.3,6-22.9,15C76.6,296.2,76.2,296.5,75.7,296.5z">
    </path>
    <path class="st7" d="M108.4,364.8c-1.9,0-3.8-0.7-5.3-1.9c-8-6.8-11.8-6.9-13.4-6.3c-1.1,0.5-1.9,1.4-2.2,2.6
		c-0.1,0.8-0.8,1.3-1.5,1.2c-0.8-0.1-1.3-0.8-1.2-1.5c0-0.1,0-0.1,0-0.2c0.4-2.1,1.9-3.9,3.9-4.7c3.8-1.4,9.2,0.9,16.1,6.8
		c2.6,2.2,5.9,1.3,8.1-0.6c3.3-2.9,4.7-8.7,0.6-15.1c-0.1-0.1-4.1-7.1-8-9.5c-8.3-5.2-19.4-4.1-19.5-4.1c-0.8,0.1-1.4-0.5-1.5-1.2
		c-0.1-0.8,0.5-1.4,1.2-1.5c0.5,0,12.1-1.3,21.3,4.5c4.5,2.8,8.7,10.1,8.9,10.4c5.1,7.8,3.1,15-1.1,18.6
		C113,363.9,110.7,364.8,108.4,364.8z"></path>
    <path class="st7" d="M114.6,345.7c-0.5,0-0.9-0.2-1.1-0.6c-0.4-0.6-0.3-1.5,0.4-1.9l0,0c7.1-4.8,4.7-14.5,4.6-15v-0.1
		c-0.1-0.6-3.1-14.8-24.7-13.9c-0.8,0-1.4-0.6-1.4-1.3c0-0.8,0.6-1.4,1.3-1.4l0,0c12.5-0.5,19.3,3.9,22.8,7.6
		c2.3,2.4,3.9,5.3,4.7,8.5c0.2,0.9,2.8,12.1-5.7,17.9C115.2,345.6,114.9,345.7,114.6,345.7z"></path>
    <path class="st7" d="M122,307.2c-0.4,0-0.7-0.2-1-0.5c-0.1-0.1-12.6-14.4-23-11.2c-0.7,0.2-1.5-0.2-1.7-0.9s0.2-1.5,0.9-1.7
		c12.1-3.7,25.3,11.4,25.9,12c0.5,0.6,0.4,1.4-0.1,1.9C122.7,307.1,122.3,307.2,122,307.2z"></path>
    <path class="st5" d="M308.3,280.6c0,0,150.7,129.5,56.7,158.1c-51.6,15.7-86-126.2-86-126.2S275.8,271.6,308.3,280.6z">
    </path>
    <path class="st5" d="M283.2,264.7c0,0-18.1-5.6-26.6-4s-14.5,16.4-14.6,23.6s7.9,7.9,7.9,7.9s-4.4,4.1-0.4,11.9s9.3,8,9.3,8
		s1.7,11.4,9.2,14.5c-0.4,0.4,5.4,9.8,20.8,4.8c16.2-5.3,29.6-9.9,33.2-16.1S318.7,277.3,283.2,264.7z"></path>
    <path class="st5" d="M295.2,272.4c-1.8-7.9-3.9-15.6-6.5-23.2c-4.3-12.6-11.9-13-16.6-10.6s-7.6,17.2-5.4,25.8
		C268.8,272.8,290.4,275.4,295.2,272.4z"></path>
    <path class="st7" d="M292.8,270.3c-0.3,0-0.7-0.1-0.9-0.4c-7.7-7.2-25.9-8.5-26-8.5c-0.8-0.1-1.3-0.7-1.3-1.5s0.7-1.3,1.5-1.3l0,0
		c0.8,0,19.3,1.4,27.7,9.2c0.6,0.5,0.6,1.4,0.1,2C293.5,270.2,293.2,270.3,292.8,270.3L292.8,270.3z"></path>
    <path class="st7" d="M284.8,340.5c-10.9,0-17.7-12.7-18-13.3c0-0.1-0.1-0.1-0.1-0.2c-0.2-0.5-1.6-5.1,5.9-13.2s18.9-9.8,19.4-9.9
		c0.7-0.1,1.4,0.4,1.6,1.1l0,0c0.1,0.8-0.4,1.5-1.1,1.6c-0.1,0-11.1,1.8-17.8,9c-5.8,6.2-5.4,9.8-5.3,10.3
		c0.8,1.4,8.1,13.7,18.2,11.4c3-0.7,5.5-1.4,7.4-1.9c5.8-1.6,8.4-2.4,13.3,0.1c0.7,0.4,0.9,1.2,0.6,1.9c-0.3,0.7-1.1,0.9-1.8,0.6
		c-3.9-2-5.8-1.4-11.3,0.1c-2,0.5-4.4,1.2-7.5,2C287,340.4,285.9,340.5,284.8,340.5z"></path>
    <path class="st7" d="M258.7,313.5c-0.7,0-1.3-0.5-1.4-1.3c0-0.2-1.2-17.5,22.4-22.8c0.7-0.2,1.5,0.3,1.7,1s-0.3,1.5-1,1.7l0,0
		c-21.1,4.8-20.3,19.2-20.2,19.9c0.1,0.8-0.5,1.4-1.3,1.5L258.7,313.5z"></path>
    <path class="st7" d="M250.9,292.7c-0.8,0-1.4-0.6-1.4-1.3c0-0.2,0-0.5,0.2-0.7c0.4-0.7,9.2-18.7,21.9-18.3c0.8,0,1.4,0.7,1.3,1.4
		c0,0.8-0.7,1.4-1.4,1.3l0,0h-0.3c-10.7,0-18.9,16.6-18.9,16.8C251.9,292.4,251.4,292.7,250.9,292.7z"></path>
    <linearGradient id="SVGID_00000167390544004030157440000006596555908219820218_" gradientUnits="userSpaceOnUse"
      x1="197.3313" y1="-266.0579" x2="194.4613" y2="-403.1879" gradientTransform="matrix(1 0 0 -1 0 4)">
      <stop offset="0" style="stop-color: rgb(0, 167, 111);"></stop>
      <stop offset="1" style="stop-color: rgb(0, 75, 81);"></stop>
    </linearGradient>
    <path d="M173.3,291.3h46.1
		c15.1,0,27.4,12.3,27.4,27.4c0,2.4-0.3,4.7-0.9,7L233,359.6c-2.7,7.1-9.4,11.7-17,11.8l-46.2,0.1c-8.9,0-16.5-6.5-18-15.3
		l-5.9-35.5c-1.1-15.1,10.3-28.2,25.4-29.3C172.1,291.3,172.7,291.3,173.3,291.3z"
      style="fill: url(&quot;#SVGID_00000167390544004030157440000006596555908219820218_&quot;);"></path>
    <linearGradient id="SVGID_00000143613639175068571790000014888758507343794356_" gradientUnits="userSpaceOnUse"
      x1="264.3129" y1="-330.4333" x2="238.7129" y2="-327.6832" gradientTransform="matrix(1 0 0 -1 0 4)">
      <stop offset="0" style="stop-color: rgb(0, 167, 111);"></stop>
      <stop offset="1" style="stop-color: rgb(0, 75, 81);"></stop>
    </linearGradient>
    <path d="M237.2,348.7c0,0,3.3-23.8,5.2-33.8
		l9.9,25.7L237.2,348.7z" style="fill: url(&quot;#SVGID_00000143613639175068571790000014888758507343794356_&quot;);">
    </path>
    <linearGradient id="SVGID_00000178169677098445846560000007097098979654897337_" gradientUnits="userSpaceOnUse"
      x1="133.3947" y1="-335.3986" x2="149.4347" y2="-322.5087" gradientTransform="matrix(1 0 0 -1 0 4)">
      <stop offset="0" style="stop-color: rgb(0, 167, 111);"></stop>
      <stop offset="1" style="stop-color: rgb(0, 75, 81);"></stop>
    </linearGradient>
    <polygon points="149.4,341.5 147.5,313.1 
		140.3,337.6 	" style="fill: url(&quot;#SVGID_00000178169677098445846560000007097098979654897337_&quot;);"></polygon>
    <path class="st7" d="M66.9,415.4c-0.8,0-1.4-0.6-1.4-1.4c0-0.4,0.2-0.8,0.5-1c12.6-10.9,15.6-39.2,15.6-39.5c0.1-0.5,0.4-1,0.9-1.2
		c8.8-2.9,10.8-15.5,10.8-15.6c0.1-0.8,0.8-1.3,1.6-1.2c0.8,0.1,1.3,0.8,1.2,1.6c-0.1,0.6-2.2,13.7-11.9,17.6
		c-0.6,5-4.2,29.8-16.4,40.5C67.6,415.2,67.3,415.4,66.9,415.4z"></path>
    <path class="st7" d="M324,395.1c-0.3,0-0.7-0.1-0.9-0.3c-8.3-7.2-13.7-18.4-15.5-32.3c-0.8-5.7-0.9-11.5-0.5-17.3
		c-3.8,0.1-13.1-0.3-16.3-6.8c-0.3-0.7,0-1.5,0.7-1.8c0.6-0.3,1.4,0,1.7,0.6c3.1,6.3,15.1,5.2,15.2,5.1c0.4,0,0.8,0.1,1.1,0.4
		c0.3,0.3,0.4,0.7,0.4,1.1c0,0.3-4,32.4,14.9,48.8c0.6,0.5,0.6,1.4,0.1,1.9l0,0C324.8,395,324.4,395.1,324,395.1z"></path>
    <path class="st3" d="M180.1,372.3c-0.3,0-0.5-0.1-0.7-0.2c-0.6-0.4-0.8-1.3-0.4-1.9l0,0c4.8-7.5,5.2-13.8,1-18
		c-2.7-2.5-6-4.1-9.6-4.6c-4,5-8.2,8.7-11.5,9.2c-2.3,0.4-4-0.8-4.8-3.1c-1-2.9,0.1-5.5,2.9-7.2c3-1.8,7.6-2.5,12.2-1.9
		c5.2-6.9,9.8-15.9,9.8-21.6c0-3.7-2.1-4.5-3.7-4.7c-15.1-2.2-32.7,14.8-36.1,18.3l-0.1,0.1c-0.6,0.6-1.4,0.6-2,0s-0.6-1.4,0-2
		l0.1-0.1c5-5.1,22.4-21.5,38.4-19.1c3.9,0.6,6,3.2,6.1,7.4c0.1,5.8-4.3,14.9-9.5,22.1c3.7,0.8,7,2.6,9.7,5.1c3,3,6.8,9.8-0.6,21.5
		C181,372,180.6,372.3,180.1,372.3z M166,347.1c-2.6-0.1-5.2,0.5-7.6,1.6c-2.5,1.5-1.9,3.4-1.7,4c0.4,1.4,1.1,1.4,1.7,1.3
		c2.3-0.4,5.5-3.1,8.7-6.9H166z"></path>
    <path class="st3" d="M201.9,313.1c-1.9,0-3.9-0.3-5.7-1c-3.1-1.2-4.7-3.1-4.9-5.5c-0.6-7,12.8-15.7,14.3-16.7
		c0.6-0.4,1.5-0.2,1.9,0.4s0.2,1.5-0.4,1.9c-5.2,3.3-13.4,10-13,14.1c0,0.5,0.2,1.9,3.2,3.2c5,2.1,14.4,0.1,27.3-5.7
		c6.3-2.9,12.5-6.1,18.5-9.7c0.6-0.4,1.5-0.3,1.9,0.3c0.4,0.6,0.3,1.5-0.3,1.9c-0.1,0-0.1,0.1-0.2,0.1
		C243.2,297.2,217.4,313.1,201.9,313.1z"></path>
    <path class="st6" d="M237.2,350.1L237.2,350.1c-0.8,0-1.4-0.6-1.4-1.4c0-1.7,4.6-30.5,5.5-36.3c0.1-0.8,0.8-1.3,1.6-1.1
		c0.8,0.1,1.3,0.8,1.2,1.6l0,0c-2.2,13.6-5.4,34.4-5.4,35.9C238.6,349.5,238,350.1,237.2,350.1z"></path>
    <path class="st6" d="M151.5,343.8c-0.7,0-1.3-0.5-1.4-1.2l-4.4-35.5c-0.1-0.8,0.4-1.4,1.2-1.5s1.4,0.4,1.5,1.2l0,0l4.4,35.5
		c0.1,0.8-0.4,1.4-1.2,1.5l0,0H151.5z"></path>
    <path class="st6" d="M111.1,454.7h144.5c0,0-5.3-38.4-30.1-60.7c-18.4-16.6-54.5-18.6-75,1.1C121.8,422.6,111.1,454.7,111.1,454.7z
		"></path>
    <circle class="st0" cx="42.4" cy="342.9" r="8.1"></circle>
    <circle class="st0" cx="48.5" cy="355.3" r="8.1"></circle>
    <circle class="st0" cx="57.4" cy="367.8" r="8.1"></circle>
    <circle class="st0" cx="69.4" cy="373.2" r="8.1"></circle>
    <circle class="st0" cx="83.8" cy="376.3" r="8.1"></circle>
  </g>
  <g id="line">
    <path class="st6" d="M302.9,456.1c-0.8,0-1.4-0.6-1.4-1.4s0.6-1.4,1.4-1.4c13.4-0.3,25.7-0.3,39.8,0c0.8,0,1.4,0.6,1.4,1.4l0,0
		c0,0.8-0.7,1.4-1.4,1.4C328.6,455.8,316.4,455.8,302.9,456.1L302.9,456.1z"></path>
    <path class="st6" d="M286.5,456.1L286.5,456.1c-68.2-0.3-137.3-0.3-205.2,0l0,0c-0.8,0-1.4-0.6-1.4-1.4s0.6-1.4,1.4-1.4
		c68-0.3,137-0.3,205.2,0c0.8,0,1.4,0.6,1.4,1.4S287.2,456.1,286.5,456.1L286.5,456.1z"></path>
  </g>
</svg>