<svg xmlns="http://www.w3.org/2000/svg" xmlns:xlink="http://www.w3.org/1999/xlink" fill="none" version="1.1"
  width="26.66666603088379" height="26.66666603088379" viewBox="0 0 26.66666603088379 26.66666603088379">
  <defs>
    <linearGradient x1="0.5" y1="0" x2="0.5" y2="1" id="master_svg0_1713_870">
      <stop offset="0%" stop-color="#5CE49B" stop-opacity="1" />
      <stop offset="100%" stop-color="#00A76F" stop-opacity="1" />
    </linearGradient>
  </defs>
  <g>
    <path
      d="M8.05333,19.12C9.4,15.7733,10.92,11.9467,16.6667,10.6667Q10,10.6667,7.84,16.84Q6.66667,15.6667,6.66667,14.3333C6.66667,13,8,10.1733,11.3333,9.50667C12.28,9.33334,13.3333,9.16,14.3733,9.01334C17,8.66667,19.52,8.29334,20,7.33334Q18,18.6667,10.6667,18.6667C10.4267,18.6667,10.0933,18.5867,9.77333,18.4667L9.14667,20L7.88,19.56L8.05333,19.12ZM13.3333,2.66667C19.2133,2.66667,24,7.45333,24,13.3333C24,19.2133,19.2133,24,13.3333,24C7.45333,24,2.66667,19.2133,2.66667,13.3333C2.66667,7.45333,7.45333,2.66667,13.3333,2.66667ZM13.3333,0C6,4.76837e-7,0,6,0,13.3333C0,20.6667,6,26.6667,13.3333,26.6667C20.6667,26.6667,26.6667,20.6667,26.6667,13.3333C26.6667,6,20.6667,4.76837e-7,13.3333,0Z"
      fill="url(#master_svg0_1713_870)" fill-opacity="1" />
  </g>
</svg>