<svg transform="scale(1)" version="1.1" id="Layer_1" xmlns="http://www.w3.org/2000/svg" xmlns:xlink="http://www.w3.org/1999/xlink" x="0px" y="0px" viewBox="0 0 500 500" xml:space="preserve" class="show_show__wrapper__graphic__5Waiy "><title>React</title><style type="text/css">
	.st0{fill:url(#SVGID_1_);}
	.st1{fill:#FFC2A7;}
	.st2{fill:#000111;}
	.st3{fill:url(#SVGID_00000146477816784685466800000015198074429000291213_);}
	.st4{fill:#D88260;}
	.st5{fill:#FFFFFF;}
	.st6{fill:#005045;}
	.st7{fill:url(#SVGID_00000057123597912838008720000017154809924300144283_);}
	.st8{fill:url(#SVGID_00000077295445568907852940000013838916387138467725_);}
	.st9{fill:#C64234;}
	.st10{fill:#FED490;}
	.st11{fill:url(#SVGID_00000089567897266477963580000005671328842749270425_);}
</style><g id="character"><linearGradient id="SVGID_1_" gradientUnits="userSpaceOnUse" x1="301.4221" y1="511.5588" x2="259.1721" y2="437.6188" gradientTransform="matrix(1 0 0 -1 0 502)"><stop offset="0" style="stop-color: rgb(187, 153, 245);"></stop><stop offset="1" style="stop-color: rgb(124, 58, 237);"></stop></linearGradient><path class="st0" d="M277.1,69.3c0,0,21.9-2.1,10.2-15.6c-16.9-19.4-18.8-4.7-18.8-4.7s-5.1-0.4-13.2-1c-15.9-1-27,9.2-25.5,22.5
		L277.1,69.3z"></path><path class="st1" d="M228.8,73.6c-1.1,6.8,0.7,13.7,5,19.2l0,0c8.5,10.8,24.2,12.7,35,4.1s12.7-24.2,4.1-35
		c-8.5-10.8-24.2-12.7-35-4.1C232.9,61.6,229.6,67.3,228.8,73.6L228.8,73.6z"></path><path class="st2" d="M280.1,92.5h-0.2c-1.5-0.1-2.5-1.6-3.1-4.3c-0.5-2.6-0.5-5.3-0.3-8l0,0c0.2-2.7,0.8-5.3,1.7-7.8
		c1-2.6,2.3-3.8,3.8-3.7s2.5,1.6,3.1,4.3c0.5,2.6,0.5,5.3,0.3,8c-0.2,2.7-0.8,5.3-1.7,7.8C282.7,91.3,281.5,92.5,280.1,92.5z
		 M279.1,80.4c-0.5,5.7,0.5,8.9,1,9.5c0.7-0.5,2.2-3.5,2.8-9.2s-0.5-8.9-1-9.5C281.1,71.7,279.5,74.7,279.1,80.4L279.1,80.4z"></path><ellipse class="st1" transform="matrix(0.4066 -0.9136 0.9136 0.4066 84.4059 306.2589)" cx="278" cy="88.2" rx="3.5" ry="7.8"></ellipse><linearGradient id="SVGID_00000113337635662004680450000016519303767602031003_" gradientUnits="userSpaceOnUse" x1="298.9868" y1="512.949" x2="256.7368" y2="439.019" gradientTransform="matrix(1 0 0 -1 0 502)"><stop offset="0" style="stop-color: rgb(187, 153, 245);"></stop><stop offset="1" style="stop-color: rgb(124, 58, 237);"></stop></linearGradient><path d="M228.8,73.6c-1.1,6.8,0.7,13.7,5,19.2l0,0
		c5.5-1.7,2.6-11.6,2.6-11.6c-6.4-1.5-4.5-14.9,2.5-14.4s6.3,8.5,6.3,8.5c2.8-4.5,4.3-8,8.9-9c9.3,3.9,22.8,3.1,23,3
		c-4.5-13-18.8-19.9-31.8-15.4C236.5,56.9,230.1,64.5,228.8,73.6L228.8,73.6z" style="fill: url(&quot;#SVGID_00000113337635662004680450000016519303767602031003_&quot;);"></path><path class="st4" d="M239.6,77.1h-0.2c0,0-0.3-0.1-0.2,0S239,77,239,77l-0.2-0.1c-0.1,0-0.2-0.2-0.1,0c-0.1,0-0.1-0.1-0.2-0.2
		c-0.1,0-0.1-0.1-0.2-0.2c-0.2-0.3,0.1,0.1,0-0.1l-0.1-0.2c0,0-0.1-0.3-0.1-0.1c-0.1-0.2-0.1-0.3-0.1-0.5c0,0.1,0,0.1,0,0v-0.3
		c0,0,0-0.3,0-0.1s0-0.2,0-0.2s0-0.2,0.1-0.2s0.1-0.1,0,0c0.1-0.1,0.1-0.2,0.1-0.3s0.1-0.2,0.1-0.1s0.1-0.1,0.1-0.1s0.1-0.1,0.2-0.2
		c-0.1,0.1,0,0,0,0l0.2-0.1c0.2-0.1,0,0,0.1,0l0.2-0.1l0.2-0.1c0.1,0-0.1,0,0.1,0s0.5,0,0.3,0c0.1,0,0.2,0,0.3,0.1
		c0,0,0.3,0.1,0.1,0c0.4,0.2,0.8,0.2,1.1,0.1c0.4-0.1,0.6-0.4,0.7-0.8c0.4-2-0.9-4-2.9-4.4c-1.5-0.3-3,0.3-3.8,1.6
		c-0.4,0.6-0.1,1.4,0.5,1.8c0.6,0.3,1.4,0.1,1.8-0.5c-0.1,0.2,0,0,0.1-0.1c0.2-0.2-0.1,0.1,0.1-0.1l0.3-0.2c-0.2,0.1,0,0,0.1,0
		s0.4-0.1,0.1,0h0.4c-0.1,0-0.2,0-0.1,0c0.1,0,0.4,0.1,0.2,0s0.1,0.1,0.2,0.1c0.2,0.1-0.1-0.1,0.1,0.1c0.1,0.1,0.2,0.2,0.2,0.2
		c-0.2-0.2,0.1,0.1,0.1,0.1s0.1,0.3,0.1,0.1c0,0.1,0.1,0.2,0.1,0.3c0.1,0.2,0-0.1,0,0.1s0,0.5,0,0.2l1.9-0.8c-1.2-0.5-2.5-0.5-3.7,0
		c-1.1,0.5-1.9,1.5-2.2,2.6c-0.6,2.3,0.7,4.6,2.9,5.3c0.1,0,0.2,0,0.3,0.1c0.7,0.2,1.4-0.2,1.6-0.9c0.2-0.7-0.2-1.4-0.9-1.6
		L239.6,77.1z"></path><ellipse class="st5" transform="matrix(0.9981 -6.226794e-02 6.226794e-02 0.9981 -4.5014 16.926)" cx="269.3" cy="80.7" rx="3.1" ry="3.6"></ellipse><ellipse class="st6" transform="matrix(0.9981 -6.226794e-02 6.226794e-02 0.9981 -4.5117 16.9899)" cx="270.3" cy="80.9" rx="2" ry="2.4"></ellipse><path class="st4" d="M256.6,97.1c-0.2,0-0.5-0.1-0.7-0.2c-1.8-1-3-2.7-3.4-4.7c-0.6-3.7,2.3-7.3,2.4-7.4c0.5-0.6,1.3-0.6,1.8-0.2
		c0.6,0.5,0.6,1.3,0.2,1.8l0,0c0,0-2.3,2.8-1.9,5.3c0.3,1.2,1.1,2.3,2.2,2.9c0.6,0.4,0.8,1.2,0.4,1.8
		C257.5,96.9,257.1,97.1,256.6,97.1L256.6,97.1z"></path><path class="st4" d="M257.4,87.1c-0.7,0-1.5-0.2-2.2-0.5c-1.2-0.7-2.1-1.8-2.4-3.2c-0.2-0.7,0.1-1.4,0.8-1.6
		c0.7-0.2,1.4,0.1,1.6,0.8c0,0.1,0,0.1,0,0.2c0.1,0.6,0.5,1.2,1,1.5c0.7,0.3,1.5,0.3,2.2,0c0.7-0.3,1.4,0.1,1.7,0.7
		s-0.1,1.4-0.7,1.7C258.8,87,258.1,87.1,257.4,87.1z"></path><path class="st2" d="M267.8,93.4h-0.4c-2.1-0.2-3.9-1.8-5-4.4c-1.1-2.8-1.5-5.7-1.1-8.7l0,0c0.6-7,4.3-12.2,8.5-11.8
		s6.8,6.2,6.2,13.1C275.3,88.4,271.8,93.4,267.8,93.4z M263.8,80.5L263.8,80.5c-0.3,2.5,0.1,5.1,1,7.5c0.8,1.7,1.8,2.8,2.9,2.9
		c2.2,0.2,5.2-3.6,5.7-9.5s-1.7-10.2-3.9-10.4S264.3,74.7,263.8,80.5z"></path><path class="st1" d="M129.4,121.3c0,0-8.2-28.6-19-27.8c-7.8,0.5-4.7,16.6-4.7,16.6S75,92,70.8,90.2s-11.2,6.8-5.2,12
		s12.6,10.7,12.6,10.7s-8.8,6.2-4.5,15.2c0,0-7.7,6.5-3.5,14.4c0,0,2,16.8,7.9,23.6s13.4,1,13.4,1s8.3,7,13.6,9.8
		c7.2,3.7,18.4,3.4,23.3-3.4C131,170,141.1,149.4,129.4,121.3z"></path><path class="st4" d="M96.3,153.2c-0.3,0-0.6,0-0.8,0c-4.9-0.5-11.6-5.4-13.6-8s-8.1-14.6-8.4-15.1c-0.3-0.6-0.1-1.4,0.6-1.7
		c0.6-0.3,1.4-0.1,1.7,0.6c1.8,3.4,6.6,12.7,8.1,14.6c1.8,2.2,7.8,6.7,11.8,7c1.6,0.2,3.2-0.3,4.3-1.4c1.2-1.3,1.6-3.4,1.1-5.9
		c-1.1-5.3-10-9.4-10.1-9.5c-0.3-0.1-0.5-0.4-0.7-0.7L86,121.7c-0.3-0.7,0.1-1.4,0.7-1.7c0.3-0.1,0.6-0.1,1,0l7.4,2.9
		c0.7,0.2,1,1,0.8,1.6c-0.2,0.7-1,1-1.6,0.8c0,0,0,0-0.1,0l-4.7-1.8l3.1,8.2c2.1,1,9.9,5.2,11.1,11.1c0.7,3.3,0.1,6.2-1.7,8.1
		C100.4,152.4,98.4,153.3,96.3,153.2z"></path><path class="st4" d="M91.2,164.6c-2.8,0-5.4-1.2-7.2-3.2l-11.6-12.8c-0.5-0.5-0.4-1.3,0.1-1.8c0.5-0.5,1.3-0.4,1.8,0.1l0,0
		l11.6,12.9c2.2,2.5,5.8,3.1,8.7,1.5c2.5-1.6,3.1-4.6,1.4-8.5c-0.3-0.7,0-1.4,0.7-1.7c0.7-0.3,1.4,0,1.7,0.7
		c2.1,5.1,1.2,9.4-2.5,11.7C94.4,164.2,92.8,164.6,91.2,164.6z"></path><path class="st4" d="M91.6,168.4c-0.3,0-0.6-0.1-0.9-0.3c-0.5-0.5-0.6-1.3-0.1-1.8c0.6-0.7,0.9-1.7,0.6-2.6
		c-0.2-0.7,0.1-1.4,0.8-1.6c0.7-0.2,1.4,0.1,1.6,0.7c0.6,1.8,0.2,3.8-1.1,5.2C92.3,168.3,91.9,168.4,91.6,168.4z"></path><path class="st4" d="M100.8,140.6c-0.5,0-0.9-0.2-1.1-0.6c-4.1-7.3,1.5-14.8,5.4-18.2l-0.7-11.8c0-0.7,0.5-1.3,1.2-1.3
		c0.7,0,1.3,0.5,1.3,1.2l0.7,12.4c0,0.4-0.1,0.8-0.5,1.1c-0.1,0.1-9.5,7.7-5.2,15.4c0.3,0.6,0.1,1.4-0.5,1.7
		C101.2,140.6,101,140.6,100.8,140.6L100.8,140.6z"></path><polygon class="st1" points="132.7,134.1 154.1,164.4 114.4,195.1 98.7,172.2 	"></polygon><path class="st4" d="M108.1,178.3c-2.8,0.1-5.6-0.7-7.9-2.4c-0.6-0.5-0.6-1.3-0.2-1.8c0.5-0.6,1.3-0.6,1.8-0.2
		c0.2,0.1,4.2,3.2,11.4,0.9c0.7-0.2,1.4,0.1,1.6,0.8c0,0,0,0,0,0c0.2,0.7-0.1,1.4-0.8,1.6C112.2,177.9,110.2,178.3,108.1,178.3z"></path><path class="st4" d="M135.9,144.8c-0.6,0-1.2-0.5-1.3-1.1l-0.9-5.8c-0.1-0.7,0.4-1.4,1.1-1.5s1.4,0.4,1.5,1.1l0.9,5.8
		c0.1,0.7-0.4,1.4-1.1,1.5c0,0,0,0,0,0L135.9,144.8z"></path><path class="st1" d="M398.5,189.6c0,0,23.8-17.9,32-10.8c5.9,5.1-6.2,16-6.2,16s35.3,4.1,39.7,5.1s4.8,12.1-3.1,12.8
		s-16.5,1-16.5,1s3.2,10.2-5.6,14.9c0,0,2.2,9.8-5.8,13.6c0,0-11.7,12.3-20.5,14.1s-11.4-7.3-11.4-7.3s-10.9,0.6-16.7-0.4
		c-8-1.3-16.8-8.4-16.5-16.8C367.9,227.6,372.2,205.1,398.5,189.6z"></path><path class="st4" d="M417.2,237.8c-3.6,0-8.1-0.6-10.8-2.3c-2.1-1.2-3.5-3.3-3.7-5.7c-0.2-2.6,1-5.3,3.5-7.5
		c4.5-4,13.2-2.6,15.5-2.2l7.4-4.7l-4.9-1.4c-0.7-0.1-1.1-0.8-1-1.5s0.8-1.1,1.5-1c0.1,0,0.1,0,0.2,0.1l7.6,2.1
		c0.5,0.1,0.8,0.5,0.9,1.1c0.1,0.5-0.1,1-0.6,1.3l-10.3,6.5c-0.3,0.2-0.7,0.3-1,0.2c-0.1,0-9.7-2.1-13.8,1.5
		c-1.9,1.7-2.9,3.6-2.7,5.4c0.2,1.6,1.1,3,2.5,3.7c3.5,2.1,11,2.2,13.7,1.5c2.4-0.6,11.9-5.1,15.3-6.8c0.6-0.3,1.4,0,1.7,0.7
		c0.3,0.6,0,1.3-0.6,1.6c-0.5,0.2-12.6,6.1-15.8,7C420.5,237.7,418.8,237.8,417.2,237.8z"></path><path class="st4" d="M408.7,249.2c-3.8,0-7.3-2.3-8.8-5.8c-1.6-4,0.3-8,5-10.8c0.6-0.3,1.4-0.1,1.7,0.5c0.3,0.6,0.1,1.3-0.4,1.7
		c-3.6,2.1-5.1,4.9-4,7.7c1.3,3,4.5,4.7,7.7,4l17.1-3.3c0.7-0.1,1.4,0.3,1.5,1c0.1,0.7-0.3,1.4-1,1.5l-17,3.3
		C410,249.1,409.3,249.2,408.7,249.2z"></path><path class="st4" d="M401.1,250.3c-0.7,0-1.2-0.5-1.3-1.1c-0.2-1.9,0.7-3.8,2.3-4.9c0.6-0.4,1.4-0.2,1.8,0.4
		c0.4,0.6,0.2,1.4-0.4,1.8c-0.8,0.6-1.2,1.5-1.1,2.5c0.1,0.7-0.4,1.3-1.1,1.4L401.1,250.3z"></path><path class="st4" d="M410.5,222.6c-0.7,0-1.3-0.5-1.3-1.2c0-0.5,0.3-1,0.8-1.2c8-3.5,5.1-15.3,5.1-15.4c-0.1-0.4,0-0.8,0.3-1.1
		l8-9.5c0.5-0.6,1.3-0.6,1.8-0.2c0.6,0.5,0.6,1.3,0.2,1.8l-7.6,9c1.1,5,1,14.4-6.7,17.8C410.8,222.5,410.6,222.6,410.5,222.6z"></path><polygon class="st1" points="386.7,199 354.4,206.2 358.9,254.3 391.3,248.6 	"></polygon><path class="st4" d="M377.8,209.2c-0.1,0-0.3,0-0.4-0.1c-0.7-0.2-1-1-0.8-1.6c1.8-5.1,7.2-7.9,7.4-8c0.6-0.3,1.4,0,1.7,0.6
		c0.3,0.6,0,1.3-0.6,1.6c0,0-4.7,2.4-6.1,6.5C378.8,208.8,378.3,209.2,377.8,209.2z"></path><path class="st4" d="M388,250.1h-0.2c-0.2,0-5.6-0.9-6.4-5c-0.2-0.7,0.2-1.4,0.9-1.6s1.4,0.2,1.6,0.9c0,0,0,0.1,0,0.1
		c0.5,2.3,4.3,3,4.3,3c0.7,0.1,1.2,0.8,1,1.5C389.1,249.6,388.6,250,388,250.1z"></path><linearGradient id="SVGID_00000075882136009485877660000012380166467248925871_" gradientUnits="userSpaceOnUse" x1="139.4781" y1="299.5036" x2="232.2881" y2="127.6536" gradientTransform="matrix(1 0 0 -1 0 502)"><stop offset="0" style="stop-color: rgb(0, 167, 111);"></stop><stop offset="0.78" style="stop-color: rgb(0, 81, 70);"></stop><stop offset="0.91" style="stop-color: rgb(0, 120, 104);"></stop></linearGradient><path d="M259.2,221c22.6,0,8.7,18.3,8.7,40.9
		l-61.3,165.4h-64.8L181.5,269C200.7,211.5,259.2,221,259.2,221z" style="fill: url(&quot;#SVGID_00000075882136009485877660000012380166467248925871_&quot;);"></path><linearGradient id="SVGID_00000074436378076976541280000008008143848684441023_" gradientUnits="userSpaceOnUse" x1="183.9895" y1="323.5444" x2="276.7996" y2="151.6944" gradientTransform="matrix(1 0 0 -1 0 502)"><stop offset="0" style="stop-color: rgb(0, 167, 111);"></stop><stop offset="0.78" style="stop-color: rgb(0, 81, 70);"></stop><stop offset="0.91" style="stop-color: rgb(0, 120, 104);"></stop></linearGradient><path d="M262.4,221L262.4,221
		c22.6,0,40.9,18.3,40.9,40.9v165.4h-64.8l-16.6-159.6c-3.2-22.4,12.3-43.1,34.7-46.3C258.5,221.1,260.5,221,262.4,221z" style="fill: url(&quot;#SVGID_00000074436378076976541280000008008143848684441023_&quot;);"></path><path class="st1" d="M303.3,427.3c1.7,11.2,2.3,14,14.5,30.9c2.8,22.9-77.2-10.5-77.2-10.5l-2.1-20.4H303.3z"></path><path class="st2" d="M240.6,447.7l-1.3,38.7l96.7,0.1l-18.3-28.4c0,0,2,11.4-23.6,3C261.6,450.5,241.9,438.8,240.6,447.7z"></path><path class="st1" d="M141.6,427.3c-2.4,11.2-3.2,14-16.4,30.9c-4.2,22.9,77.8-10.5,77.8-10.5l3.4-20.4H141.6z"></path><path class="st2" d="M203,447.7l-5.9,38.7l-92,0.1l20.1-28.4c0,0-2.7,11.4,23.4,3C181.8,450.5,202.3,438.8,203,447.7z"></path><path class="st5" d="M145.3,417.1c-0.7,0-1.3-0.6-1.3-1.3c0-0.5,0.3-1,0.9-1.2c1.2-0.4,36.3-0.2,65.6-0.1c0.7,0.1,1.2,0.7,1.2,1.4
		c-0.1,0.6-0.5,1.1-1.2,1.2l0,0c-24.9-0.1-62.6-0.3-64.9,0H145.3z"></path><path class="st5" d="M301.8,417.1H239c-0.7,0.1-1.3-0.5-1.4-1.2c-0.1-0.7,0.5-1.3,1.2-1.4c0.1,0,0.2,0,0.2,0h62.8
		c0.7-0.1,1.3,0.5,1.4,1.2s-0.5,1.3-1.2,1.4C301.9,417.1,301.8,417.1,301.8,417.1L301.8,417.1z"></path><path class="st5" d="M291.7,416.3c-0.3,0-0.7-0.1-0.9-0.4c-0.3-0.3-0.4-0.8-0.3-1.2c0.5-4.9,6.2-171.6,6.3-173.1
		c0-0.7,0.6-1.3,1.3-1.3l0,0c0.7,0,1.3,0.6,1.3,1.3c0,0.4-1.5,45-3,86.8c-3.1,86.9-3.1,86.9-3.7,87.5
		C292.3,416.1,292,416.3,291.7,416.3z"></path><path class="st5" d="M161.2,417.4c-0.1,0-0.2,0-0.4,0c-0.7-0.2-1.1-0.9-0.9-1.6l53.7-186c0.2-0.7,0.9-1.1,1.6-0.9s1.1,0.9,0.9,1.6
		l0,0l-53.7,186C162.3,417,161.8,417.4,161.2,417.4z"></path><polygon class="st4" points="141.6,427.3 205.1,435 206.4,427.3 	"></polygon><path class="st4" d="M303.3,427.3c0.3,0.6-63.9,8.5-63.9,8.5l-0.9-8.5H303.3z"></path><path class="st9" d="M97,476.4c-0.7,0-1.3-0.6-1.3-1.3c0-0.3,0.1-0.7,0.4-0.9c7.1-7.4,17.7-6.4,23.9-4.9
		c-4.3-4.4-10.2-11.4-9.4-15.5c0.3-1.3,1.2-2.4,2.5-2.8c3.7-1.4,8,0.7,12.6,6.4c2.1,2.6,3.9,5.5,5.5,8.4c0.3,0.6,0,1.4-0.7,1.7
		c-0.6,0.3-1.3,0-1.6-0.5c-2.3-4.5-9.5-15.7-14.9-13.6c-0.8,0.3-0.9,0.6-1,1c-0.7,3.4,7.3,12.2,12.5,16.9c0.5,0.5,0.6,1.3,0.1,1.8
		c-0.4,0.4-1,0.6-1.5,0.3c-0.2-0.1-17.1-6.9-26.3,2.7C97.6,476.3,97.3,476.4,97,476.4z"></path><path class="st9" d="M345.5,474.2c-0.2,0-0.5-0.1-0.6-0.2c-7.6-4.5-23.6-1.4-23.8-1.3c-0.7,0.1-1.4-0.3-1.5-1
		c-0.1-0.5,0.1-1.1,0.6-1.4c6-3.5,14.2-9.9,14-12.8c0-0.2-0.1-0.9-1.6-1.5c-8.4-3.2-15.6,11.4-15.7,11.5c-0.3,0.6-1,0.9-1.7,0.7
		c-0.6-0.3-0.9-1-0.7-1.7c0,0,0-0.1,0-0.1c0.3-0.7,8.4-16.9,18.9-12.8c2.5,1,3.1,2.5,3.2,3.6c0.3,3.9-5.6,8.8-10.3,12.1
		c5.7-0.6,14.4-0.7,19.8,2.5c0.6,0.4,0.8,1.1,0.4,1.8C346.4,474,345.9,474.2,345.5,474.2L345.5,474.2z"></path><path class="st2" d="M230.9,361.3c-0.7,0-1.3-0.6-1.3-1.3c0,0,0,0,0,0c0-1.4,18.5-68.5,26.4-97.3c0.1-0.5,0.6-0.9,1.1-0.9l10.6-1.2
		c0.7-0.1,1.3,0.4,1.4,1.1c0,0,0,0,0,0c0.1,0.7-0.4,1.3-1.1,1.4l-9.8,1.1c-7.3,26.6-25.6,93.1-26.1,95.9
		C232.1,360.8,231.5,361.3,230.9,361.3z"></path><path class="st5" d="M312,261l46.9-6.6l-4.5-48.1l-36.1-1.7l-17.4-68.2c-7-20.3-24.1-22.3-28.4-22.3l-20.7-0.3h-24.3
		c-9.1-0.8-18.1,2.6-24.5,9.2l-30.8,53L146,154.4l-37.8,38.2l27.2,43.2c0,0,19.3,13.9,34.8,4.4l-27.7,88.9h118.8l15.5-20.8l5.3,20.8
		H308l3.9-68.5L312,261z"></path><path class="st2" d="M308,330.4h-25.8c-0.6,0-1.1-0.4-1.2-1l-4.6-18.2l-13.9,18.7c-0.2,0.3-0.6,0.5-1,0.5H142.6
		c-0.4,0-0.8-0.2-1-0.5c-0.2-0.3-0.3-0.8-0.2-1.1l26.8-86c-6.2,2.7-13.5,2.7-21.5,0c-4.2-1.4-8.2-3.4-11.9-5.9
		c-0.1-0.1-0.2-0.2-0.3-0.4l-27.3-43.2c-0.3-0.5-0.2-1.2,0.2-1.6l37.8-38.1c0.5-0.5,1.2-0.5,1.7-0.1l24.9,20.5l30-51.7
		c0-0.1,0.1-0.2,0.2-0.2c6.6-6.9,16-10.4,25.5-9.6h24.3l20.7,0.3c3.6,0,22.1,1.4,29.6,23.2l17.2,67.4l35.1,1.8
		c0.6,0,1.2,0.5,1.2,1.1l4.5,48.1c0.1,0.7-0.4,1.3-1.1,1.4l-46,6.5l-3.8,67C309.2,329.8,308.7,330.4,308,330.4z M283.2,327.8h23.6
		l3.8-67.3c0-0.6,0.5-1.1,1.2-1.2c0.4,0,0.7,0.1,1,0.3l44.8-6.4l-4.3-45.8l-35-1.7c-0.6,0-1.1-0.4-1.2-1l-17.4-68.2
		c-7-20.1-23.9-21.3-27.2-21.4l-20.7-0.3h-24.5c-0.1,0-13.4-1.7-23.3,8.7l-30.7,52.8c-0.3,0.6-1.1,0.8-1.7,0.5
		c-0.1,0-0.1-0.1-0.2-0.1l-25.2-20.7l-36.2,36.6l26.6,42.1c2,1.4,19.4,12.6,33.2,4.2c0.5-0.3,1-0.2,1.4,0.1c0.4,0.3,0.6,0.9,0.4,1.4
		l-27.2,87.2h116.5l15.1-20.3c0.4-0.6,1.2-0.7,1.8-0.3c0.2,0.2,0.4,0.4,0.5,0.7L283.2,327.8z"></path><path class="st2" d="M170.3,241.5c-0.2,0-0.4,0-0.6-0.1c-0.6-0.3-0.9-1.1-0.6-1.7l30.9-64.8l3.4-41.2c0.1-0.7,0.7-1.2,1.4-1.1
		c0.7,0.1,1.2,0.7,1.1,1.3l-3.4,41.4c0,0.2-0.1,0.3-0.1,0.4l-31,65C171.2,241.2,170.8,241.5,170.3,241.5z"></path><path class="st2" d="M312,262.3c-0.6,0-1.2-0.5-1.3-1.1l-10-69.8l-4.4-43.8c0-0.7,0.5-1.3,1.2-1.3c0.6,0,1.2,0.4,1.3,1.1l4.4,43.7
		l10,69.7c0.1,0.7-0.4,1.3-1.1,1.4c0,0,0,0,0,0L312,262.3z"></path><path class="st2" d="M209.5,249c-0.5,0-0.9-0.3-1.2-0.7c-0.3-0.6,0-1.4,0.6-1.7l87.2-41.9c0.6-0.4,1.4-0.1,1.7,0.5
		c0.4,0.6,0.1,1.4-0.5,1.7c-0.1,0-0.1,0.1-0.2,0.1L210,248.9C209.8,248.9,209.7,249,209.5,249z"></path><path class="st2" d="M239.4,220.8c-0.7,0-1.3-0.6-1.3-1.3c0-0.5,0.2-0.9,0.7-1.1l15-8.6c0.6-0.3,1.4-0.1,1.7,0.6
		c0.3,0.6,0.1,1.3-0.5,1.7l-15,8.6C239.8,220.7,239.6,220.8,239.4,220.8z"></path><path class="st2" d="M182.7,186.4c-0.3,0-0.6-0.1-0.8-0.3l-10.6-9.3c-0.5-0.5-0.5-1.3,0-1.8c0.5-0.5,1.2-0.5,1.7-0.1l10.6,9.3
		c0.5,0.5,0.6,1.3,0.1,1.8C183.4,186.3,183,186.4,182.7,186.4L182.7,186.4z"></path><path class="st2" d="M310,207.2c-0.7,0-1.3-0.6-1.3-1.3c0-0.6,0.5-1.1,1.1-1.2l8.3-1.4c0.7-0.1,1.4,0.4,1.5,1.1s-0.4,1.4-1.1,1.5
		l0,0l-8.3,1.4L310,207.2z"></path><path class="st2" d="M118.4,207.6c-0.3,0-0.6-0.1-0.9-0.4c-0.5-0.5-0.5-1.3,0-1.8l38.6-41c0.5-0.5,1.3-0.5,1.8-0.1s0.5,1.3,0.1,1.8
		l-38.6,41C119.2,207.4,118.8,207.6,118.4,207.6z"></path><path class="st2" d="M340.7,257.2c-0.7,0-1.2-0.5-1.3-1.2l-4.2-50c-0.1-0.7,0.5-1.3,1.2-1.4c0.7-0.1,1.3,0.5,1.4,1.2c0,0,0,0,0,0
		l4.2,50c0.1,0.7-0.5,1.3-1.2,1.4c0,0,0,0,0,0L340.7,257.2z"></path><path class="st2" d="M267.6,319.2H146.4c-0.7,0.1-1.3-0.5-1.4-1.2c-0.1-0.7,0.5-1.3,1.2-1.4c0.1,0,0.2,0,0.2,0h121.2
		c0.7-0.1,1.3,0.5,1.4,1.2s-0.5,1.3-1.2,1.4C267.8,319.2,267.7,319.2,267.6,319.2z"></path><path class="st2" d="M307.8,319.2h-27.3c-0.7-0.1-1.2-0.7-1.2-1.4c0.1-0.6,0.5-1.1,1.2-1.2h27.3c0.7-0.1,1.3,0.5,1.4,1.2
		s-0.5,1.3-1.2,1.4C308,319.2,307.9,319.2,307.8,319.2z"></path><path class="st2" d="M276.9,309.5c-0.7,0-1.2-0.5-1.3-1.2l-6.8-79.9c0-0.1,0-0.1,0-0.2l4.2-87.9c0.1-0.7,0.6-1.2,1.3-1.2
		c0.7,0,1.2,0.6,1.2,1.3l-4.2,87.8l6.8,79.8c0.1,0.7-0.5,1.3-1.2,1.4L276.9,309.5z"></path><path class="st2" d="M221.8,292.7L221.8,292.7l-47.1-1.9c-0.7,0-1.3-0.6-1.2-1.3c0-0.1,0-0.2,0.1-0.3l9.3-31.4
		c0.1-0.6,0.7-1,1.3-0.9l43.7,1.9c0.7,0,1.2,0.6,1.2,1.3c0,0.1,0,0.1,0,0.2l-6,31.4C223,292.2,222.4,292.7,221.8,292.7z
		 M176.5,288.3l44.3,1.8l5.5-28.9l-41.2-1.8L176.5,288.3z"></path><path class="st2" d="M201.2,273.4c-2.1,0-4.2-0.3-6.1-1c-9.5-3.3-12.1-13.5-12.2-13.9c-0.1-0.7,0.3-1.4,1-1.5
		c0.6-0.1,1.2,0.3,1.4,0.9c0,0.1,2.4,9.3,10.6,12.1c7.8,2.7,18.3-1,31.1-10.9c0.5-0.5,1.3-0.5,1.8,0c0.5,0.5,0.5,1.3,0,1.8
		c-0.1,0.1-0.1,0.1-0.2,0.2C218,269.2,208.8,273.4,201.2,273.4z"></path><path class="st2" d="M288.5,293.2c-0.6,0-1.2-0.5-1.3-1.1l-3.3-27.4c0-0.4,0-0.7,0.3-1c0.2-0.3,0.5-0.4,0.9-0.5l25.4-2.5
		c0.7-0.1,1.3,0.4,1.4,1.1c0.1,0.7-0.4,1.3-1.1,1.4c0,0,0,0,0,0l-24.1,2.3l3,25l20.8-0.5c0.7,0,1.3,0.6,1.3,1.2
		c0,0.7-0.5,1.3-1.2,1.3c0,0,0,0,0,0L288.5,293.2L288.5,293.2z"></path><path class="st2" d="M311.2,276.6L311.2,276.6c-1,0-23-1.1-27.2-11.6c-0.3-0.7,0.1-1.4,0.7-1.7s1.4,0.1,1.7,0.7
		c3.5,9,24.6,10,24.8,10c0.7,0,1.3,0.6,1.3,1.3C312.5,276.1,311.9,276.6,311.2,276.6L311.2,276.6z"></path></g><g id="line"><path class="st2" d="M401.9,487.8H11.3c-0.7,0.1-1.3-0.5-1.4-1.2s0.5-1.3,1.2-1.4c0.1,0,0.2,0,0.2,0h390.6c0.7,0.1,1.2,0.7,1.2,1.4
		C403,487.3,402.5,487.7,401.9,487.8z"></path></g><g id="screen"><path class="st2" d="M160.9,297.7L160.9,297.7c-16.3-0.7-32.5-3.1-48.4-7c-24.7-6.1-58.8-18.8-81.7-44.7c-0.2-0.3-0.4-0.6-0.3-1
		L51.3,69.8c0.1-0.7,0.7-1.2,1.4-1.2c0.7,0.1,1.2,0.7,1.2,1.4c0,0,0,0.1,0,0.1L33,244.8c40.3,45.1,116.2,49.9,126.7,50.4l16.6-201.2
		c-18.8-1.5-37.6-3.9-56.1-7.4c-39.3-7.6-61.5-18-65.8-31c-0.9-2.4-0.4-5.1,1.2-7.1c17.6-22.4,186.7-9,193.9-8.4
		c0.7,0.1,1.2,0.6,1.2,1.3V47c0,0.7-0.6,1.3-1.3,1.3l0,0c-0.7,0-1.3-0.6-1.3-1.3c0,0,0,0,0,0v-4.5C232.7,41.3,73.5,29.5,57.5,50
		c-1.1,1.3-1.4,3.1-0.8,4.7c4,11.9,26.1,22.1,63.9,29.3c18.9,3.5,38,6,57.1,7.4c0.7,0,1.2,0.6,1.2,1.3c0,0,0,0,0,0l-16.8,203.7
		C162.1,297.2,161.5,297.7,160.9,297.7z"></path><path class="st2" d="M377.6,327.7c-7.6,0.1-15.3-0.4-22.9-1.5c-0.6-0.1-1-0.6-1.1-1.1L332,110.9c0-0.4,0.1-0.7,0.4-1
		c0.3-0.3,0.6-0.4,1-0.4c38.2,2.4,138.5,5.3,143.8-9.7c1.1-3.2-3.2-7-7-9.7C423.9,57.5,282,45,280.6,44.9c-0.7-0.1-1.2-0.7-1.2-1.4
		c0.1-0.7,0.7-1.2,1.4-1.2c0,0,0,0,0,0c0.4,0,36.3,3.1,77.5,10.3C413.8,62.2,452,74.1,471.7,88c6.7,4.7,9.3,8.8,7.9,12.6
		c-3,8.6-28,13-76.3,13.3c-31,0.2-61.6-1.4-68.6-1.9l21.4,211.7c9.1,1.2,80.1,9.2,131.3-37.3l-6.9-174.9c0-0.7,0.5-1.3,1.2-1.3
		c0.7,0,1.3,0.5,1.3,1.2l0,0l7,175.6c0,0.4-0.1,0.7-0.4,1C452.5,322,405.2,327.7,377.6,327.7z"></path><path class="st10" d="M56.5,186.7c0,0,60.6,34.6,99.4,35l-8.9,59c0,0-69.9-10.1-99.8-41.1L56.5,186.7z"></path><linearGradient id="SVGID_00000045593530070694859170000013399109829741649550_" gradientUnits="userSpaceOnUse" x1="455.2425" y1="372.2394" x2="410.1925" y2="187.4494" gradientTransform="matrix(1 0 0 -1 0 502)"><stop offset="0" style="stop-color: rgb(187, 153, 245);"></stop><stop offset="1" style="stop-color: rgb(124, 58, 237);"></stop></linearGradient><path d="M362.7,275.3c0,0,72.9-2.5,107.7-31.8
		l4.7,39c0,0-42.8,36.9-109.4,33.1L362.7,275.3z" style="fill: url(&quot;#SVGID_00000045593530070694859170000013399109829741649550_&quot;);"></path><path class="st2" d="M382.6,195.5c-7.4,0-14.9-0.4-22.3-1.2c-0.6-0.1-1.1-0.5-1.1-1.1l-6.4-61.5c0-0.4,0.1-0.7,0.4-1
		c0.3-0.3,0.7-0.4,1.1-0.3c0.8,0.1,79.2,11.4,113-7.9c0.4-0.2,0.8-0.2,1.2,0c0.4,0.2,0.6,0.6,0.7,1l4.8,48.6c0,0.5-0.2,0.9-0.6,1.2
		C472.9,173.4,437.9,195.5,382.6,195.5z M361.6,191.9c62.1,6.3,104-17,109.7-20.4l-4.5-45.9c-14.7,7.6-37.8,11.2-68.8,10.6
		c-14.2-0.3-28.4-1.4-42.5-3.2L361.6,191.9z"></path><path class="st2" d="M379.9,152.3c-9.7,0-16-0.4-16.1-0.5c-0.7-0.1-1.2-0.7-1.2-1.4c0.1-0.7,0.7-1.2,1.4-1.2c0.4,0,39.8,2.9,74.8-6
		c0.7-0.2,1.4,0.2,1.5,0.9c0,0,0,0,0,0c0.2,0.7-0.2,1.4-0.9,1.6C417.9,151.2,394.8,152.3,379.9,152.3z"></path><path class="st2" d="M382.2,166.1c-6.1,0-12.2-0.2-18.2-0.9c-0.7-0.1-1.2-0.7-1.1-1.4c0.1-0.7,0.7-1.2,1.4-1.1
		c0.5,0.1,45.6,5.5,91.5-11.9c0.7-0.2,1.4,0.2,1.6,0.9c0.2,0.6-0.1,1.3-0.7,1.5C428.2,164,399.9,166.1,382.2,166.1z"></path><path class="st2" d="M381.1,179.2c-8.9,0-14.7-0.3-14.8-0.4c-0.7,0-1.2-0.6-1.2-1.4c0.1-0.7,0.7-1.2,1.4-1.2
		c0.6,0,63.7,3.6,94.4-13.8c0.6-0.4,1.4-0.2,1.8,0.3c0.4,0.6,0.2,1.4-0.3,1.8c-0.1,0-0.1,0.1-0.2,0.1c-13.2,7.5-33.4,12.1-59.9,13.8
		C394.3,179.1,387,179.2,381.1,179.2z"></path></g><g id="light"><path class="st2" d="M380.6,86.1c-1.1,0-2.1-0.4-2.8-1.2c-3-3.2-2.3-11.7,1.8-20.2c2.6-5.1,5.9-9.8,10-13.9
		c-2.9-4.6-8.1-7.8-15.3-9.4c-34.5-7.5-51.9,36.6-52,37c-0.2,0.6-0.8,0.9-1.4,0.8c-0.6-0.1-1.1-0.6-1.1-1.2
		c-1.8-24.5-23.8-43.6-24-43.8c-0.5-0.5-0.5-1.3,0-1.8c0.4-0.5,1.2-0.5,1.7-0.1c0.9,0.8,20.4,17.7,24.3,41
		c5.5-11.3,23.1-40.9,53.1-34.4c8.8,1.9,13.8,5.8,16.6,10c11.1-10.3,30.9-20.6,64.4-17.9c0.7,0.1,1.2,0.7,1.2,1.4
		c0,0.7-0.6,1.2-1.3,1.2c0,0,0,0,0,0c-33.1-2.7-52.3,7.6-62.9,17.7c1,2.2,1.7,4.6,1.9,7c0.5,5.9-0.6,11.7-3.2,17
		c-2.4,5-5.7,9-8.6,10.3C382.1,85.9,381.4,86.1,380.6,86.1z M390.8,53.2c-3.6,3.7-6.6,8-8.9,12.6c-3.9,8-4.2,15.2-2.2,17.3
		c0.2,0.2,0.7,0.8,2.1,0.1c4.4-2,11.6-13.6,10.4-24.7C392,56.7,391.5,54.9,390.8,53.2z"></path><g id="light-2"><path class="st10" d="M446.9,42.5c10.1,0.7,18.2,8.6,19.2,18.7c1-10.1,9.1-18,19.2-18.7c-10.1-0.8-18.2-8.7-19.2-18.7
			C465.1,33.8,457,41.7,446.9,42.5z"></path><path class="st10" d="M284.1,23.2c3.6,0.3,6.4,3,6.8,6.6c0.4-3.5,3.2-6.3,6.8-6.6c-3.6-0.3-6.4-3-6.8-6.6
			C290.5,20.2,287.6,23,284.1,23.2z"></path><path class="st10" d="M443.2,18.8c3.6,0.3,6.4,3,6.8,6.6c0.4-3.5,3.2-6.3,6.8-6.6c-3.6-0.3-6.4-3-6.8-6.6
			C449.6,15.7,446.7,18.5,443.2,18.8z"></path></g></g></svg>