<svg xmlns="http://www.w3.org/2000/svg" xmlns:xlink="http://www.w3.org/1999/xlink" fill="none" version="1.1" width="225.7001953125" height="225.701171875" viewBox="0 0 225.7001953125 225.701171875"><g><g><path d="" fill="#FFFFFF" fill-opacity="0"/></g><g><path d="" fill="#FFFFFF" fill-opacity="0"/></g><g><path d="M131.98999067578126,187.1400064453125C131.87734967578126,187.1386064453125,131.76834067578125,187.0999064453125,131.67999267578125,187.0300064453125C131.46553037578124,186.8583064453125,131.42980957578126,186.5457064453125,131.59999067578124,186.3300064453125C131.84492467578124,185.7940064453125,132.05535867578126,185.24290644531249,132.22999567578125,184.6800064453125C133.83999267578125,180.1200064453125,138.06999267578124,168.13000644531252,147.52999267578124,169.9100064453125C148.13999267578126,167.6400064453125,151.12999267578124,158.1000064453125,159.06999267578124,154.6200064453125C164.17999267578125,152.3700064453125,170.26999267578125,153.1500064453125,177.16999267578126,156.9400064453125C177.66999267578126,153.8400064453125,180.22999267578126,141.7500064453125,190.24999267578124,134.4300264453125C198.04999267578125,128.7400204453125,208.45999267578125,127.1900164453125,221.24999267578124,129.8400264453125C221.52059267578124,129.8951864453125,221.69529267578125,130.1593964453125,221.63999267578123,130.4300264453125C221.57549267578125,130.6988564453125,221.31189267578125,130.8701964453125,221.03999267578126,130.8200264453125C208.58999267578125,128.2300264453125,198.43999267578124,129.7200164453125,190.87999267578124,135.2400164453125C179.72999267578126,143.3800064453125,178.10999267578126,157.6400064453125,178.09999267578127,157.7800064453125C178.08109267578124,157.9495064453125,177.98019267578124,158.0990064453125,177.82999267578126,158.1800064453125C177.67999267578125,158.2600064453125,177.49999267578124,158.2600064453125,177.34999267578127,158.1800064453125C170.47999267578126,154.2600064453125,164.47999267578126,153.3700064453125,159.50999267578123,155.5500064453125C151.11999267578125,159.2300064453125,148.44999267578126,170.5500064453125,148.42999267578125,170.63000644531252C148.40029267578126,170.75830644531248,148.32129267578125,170.8697064453125,148.20999267578125,170.9400064453125C148.09699267578125,171.0113064453125,147.96089267578125,171.0363064453125,147.82999267578126,171.0100064453125C138.88997267578125,168.9200064453125,134.90997267578126,180.2100064453125,133.21997267578126,185.0100064453125C133.03575267578125,185.6877064453125,132.76697267578126,186.3395064453125,132.41996767578124,186.9500064453125C132.31610067578126,187.0795064453125,132.15568567578126,187.1504064453125,131.98999067578126,187.1400064453125Z" fill="#D1D3D4" fill-opacity="1"/></g><g><path d="M135.14999877929688,201.70000732421875L90.52999877929688,201.70000732421875L102.21999877929687,133.57000732421875L123.45999877929688,133.57000732421875L135.14999877929688,201.70000732421875Z" fill="#FFFFFF" fill-opacity="1"/></g><g><path d="M135.14999414062498,202.20000732421875L90.529999140625,202.20000732421875C90.219925140625,202.20530732421875,89.982986440625,201.92480732421876,90.039993290625,201.62000732421876L101.729994140625,133.49000532421874C101.768994140625,133.24923732421874,101.976094140625,133.07174682421876,102.219994140625,133.07000732421875L123.459994140625,133.07000732421875C123.70389414062501,133.07174682421876,123.91099414062501,133.24922132421875,123.949994140625,133.49000532421874L135.639994140625,201.62000732421876C135.696994140625,201.92480732421876,135.46009414062502,202.20530732421875,135.14999414062498,202.20000732421875ZM91.149994140625,201.20000732421875L134.569994140625,201.20000732421875L123.049994140625,134.06999232421876L102.649994140625,134.06999232421876L91.149994140625,201.20000732421875Z" fill="#231F20" fill-opacity="1"/></g><g><path d="M124.07998901367188,144.39000732421874L101.03998901367187,144.39000732421874L98.26998901367188,133.32000732421875L126.84998901367187,133.32000732421875L124.07998901367188,144.39000732421874Z" fill="#FFFFFF" fill-opacity="1"/></g><g><path d="M124.07995390625,144.85997680664062L101.08000390625,144.85997680664062C100.84957390625,144.85857680664063,100.64872390625,144.70277680664063,100.58999390625,144.47997680664062L97.83999630625,133.44000280664062C97.79878230625,133.29373180664064,97.83247375625,133.13655080664063,97.92999290625,133.02000380664063C98.01904290625,132.89309690664064,98.16496290625,132.81828307664063,98.31999190625,132.82000732424063L126.83995390625,132.82000732424063C126.99505390625,132.81828307664063,127.14095390625,132.89309690664064,127.22995390625,133.02000380664063C127.32655390625,133.13697780664063,127.36345390625,133.29206880664063,127.32995390625,133.44000280664062L124.55995390625,144.5199768066406C124.48805390625,144.72347680664063,124.29585390625,144.85967680664064,124.07995390625,144.85997680664062ZM101.43000390625,143.85997680664062L123.68995390625,143.85997680664062L126.20995390625,133.85999680664062L98.90998390625,133.85999680664062L101.43000390625,143.85997680664062Z" fill="#231F20" fill-opacity="1"/></g><g><path d="M86.7300453125,98.75999450683594Q74.6499953125,106.30999450683593,70.4499953125,118.89999450683594Q66.2499953125,131.48999450683593,75.8199953125,155.79999450683593L97.8199453125,131.97999450683594L86.7300453125,98.75999450683594Z" fill="#FFFFFF" fill-opacity="1"/></g><g><path d="M75.84000107910157,156.29997797851564L75.75000107910157,156.29997797851564C75.58224107910156,156.27257797851564,75.44151107910156,156.15847797851563,75.38000107910156,155.99997797851563C74.98001107910156,154.99997797851563,65.80000107910156,131.35997797851562,70.00000107910157,118.74997797851563C74.20000107910157,106.13999797851562,86.35998107910156,98.43000797851562,86.47998107910156,98.35000607851562C86.61938107910156,98.28489687851562,86.78058107910157,98.28489687851562,86.91998107910156,98.35000607851562C87.06148107910155,98.40833997851563,87.17088107910156,98.52502397851562,87.21998107910156,98.67001297851563L98.26998107910157,131.85997797851562C98.33048107910156,132.03237797851563,98.29218107910157,132.22407797851562,98.16998107910156,132.35997797851562L76.16998107910156,156.17997797851564C76.07858107910157,156.25937797851563,75.96103107910156,156.30217797851563,75.84000107910157,156.29997797851564ZM86.47998107910156,99.54000797851563C84.10998107910156,101.17001797851563,74.47999107910157,108.29000797851563,70.95000107910157,119.04997797851563C67.27000107910156,130.0499779785156,74.47000107910156,150.67997797851564,76.02000107910156,154.86997797851564L97.24998107910156,131.86997797851564L86.47998107910156,99.54000797851563Z" fill="#231F20" fill-opacity="1"/></g><g><path d="M138.95000061035157,98.75999450683594Q151.03000061035158,106.30999450683593,155.23000061035157,118.89999450683594Q159.43000061035156,131.48999450683593,149.86000061035156,155.79999450683593L127.86000061035156,131.97999450683594L138.95000061035157,98.75999450683594Z" fill="#FFFFFF" fill-opacity="1"/></g><g><path d="M149.8399510986328,156.2999651611328C149.6994510986328,156.30226516113282,149.56465109863282,156.24396516113282,149.4700510986328,156.1399651611328L127.4700010986328,132.3199651611328C127.34779357863282,132.18406516113282,127.30944819863281,131.9923651611328,127.36999509863281,131.8199651611328L138.4400510986328,98.61000016113282C138.48915109863282,98.46501116113281,138.5984510986328,98.34834316113282,138.74005109863282,98.2899932611328C138.8794510986328,98.22488406113281,139.04055109863282,98.22488406113281,139.18005109863282,98.2899932611328C139.30005109863282,98.3699951611328,151.46005109863282,106.07998516113281,155.6600510986328,118.68996516113282C159.85995109863282,131.2999651611328,150.6600510986328,154.93996516113282,150.2799510986328,155.93996516113282C150.2184510986328,156.09846516113282,150.0777510986328,156.21256516113283,149.9100510986328,156.23996516113283L149.8399510986328,156.2999651611328ZM128.4500010986328,131.8599651611328L149.6799510986328,154.8599651611328C151.22995109863282,150.6699651611328,158.4299510986328,130.0799651611328,154.7499510986328,119.03996516113281C151.16995109863282,108.27996516113281,141.5899510986328,101.15998516113281,139.2200510986328,99.52999516113282L128.4500010986328,131.8599651611328Z" fill="#231F20" fill-opacity="1"/></g><g><path d="M132.29998352050782,137.51986447143554C138.29998352050782,123.14986447143555,142.08998352050781,102.31996447143554,142.08998352050781,79.13996447143555C142.08998352050781,44.00996447143555,122.70998352050782,25.720004471435548,115.3499835205078,20.040000471435548C113.70708352050781,18.769153471435548,111.41288352050782,18.769153471435548,109.76998352050781,20.040000471435548C102.40998352050781,25.720004471435548,83.02998352050781,44.039964471435546,83.02998352050781,79.13996447143555C83.02998352050781,102.31996447143554,86.80998352050781,123.13986447143554,92.81997352050782,137.51986447143554Q98.8199835205078,140.51986447143554,112.55998352050781,140.51986447143554Q126.29998352050782,140.51986447143554,132.29998352050782,137.51986447143554Z" fill="#2DD4BF" fill-opacity="1"/></g><g><path d="M109.76999572753905,20.040000471435548C100.73729572753906,27.23593447143555,93.67153572753907,36.599664471435545,89.22999572753906,47.25996447143555L135.88999572753906,47.25996447143555C131.44839572753907,36.599664471435545,124.38269572753907,27.23593447143555,115.34999572753907,20.040000471435548C113.70709572753907,18.769153471435548,111.41289572753907,18.769153471435548,109.76999572753905,20.040000471435548Z" fill="#FFFFFF" fill-opacity="1"/></g><g><path d="M135.8899793701172,47.76005028076172L89.2299953701172,47.76005028076172C88.87533537011718,47.758250280761715,88.63520817011718,47.39805028076172,88.76998897011718,47.06995028076172C93.22892937011719,36.32285028076172,100.34887937011719,26.886860280761717,109.4599793701172,19.65000028076172C111.28587937011719,18.23913528076172,113.8340793701172,18.23913528076172,115.65997937011718,19.65000028076172C124.77107937011718,26.886860280761717,131.89107937011718,36.32285028076172,136.34997937011718,47.06995028076172C136.4847793701172,47.39805028076172,136.24467937011718,47.758250280761715,135.8899793701172,47.76005028076172ZM89.98998937011719,46.76005028076172L135.12997937011718,46.76005028076172C130.7225793701172,36.457350280761716,123.8221793701172,27.41260028076172,115.04997937011719,20.44000028076172C113.5797793701172,19.29557828076172,111.52017937011719,19.29557828076172,110.04997937011719,20.44000028076172C101.28237937011718,27.41231028076172,94.38837937011719,36.45765028076172,89.98998937011719,46.76005028076172Z" fill="#231F20" fill-opacity="1"/></g><g><ellipse cx="113.71999168395996" cy="73.3700008392334" rx="18.010000228881836" ry="18.010000228881836" fill="#FFFFFF" fill-opacity="1"/></g><g><path d="M113.71998168945312,91.85999633789064C103.49591168945312,91.86549633789062,95.20367431945313,83.58079633789063,95.19998168945312,73.35669633789063C95.19813537945312,63.130736337890625,103.48588168945312,54.839996337890625,113.70998168945313,54.839996337890625C123.93218168945313,54.83815002789063,132.21998168945314,63.12589633789062,132.21998168945314,73.34999633789063C132.20898168945314,83.56429633789062,123.93428168945313,91.84349633789063,113.71998168945312,91.85999633789064ZM113.71998168945312,55.85999633789063C104.04504168945313,55.856316337890625,96.20000168945313,63.69689633789062,96.20000168945313,73.36999633789063C96.19631968945312,83.03939633789062,104.03688168945312,90.87999633789062,113.70998168945313,90.87999633789062C123.38498168945313,90.87819633789063,131.22548168945312,83.03309633789063,131.21998168945314,73.35999633789062C131.20898168945314,63.69958633789062,123.38038168945312,55.87101633789062,113.71998168945312,55.85999633789063Z" fill="#231F20" fill-opacity="1"/></g><g><ellipse cx="113.72000026702881" cy="73.37000179290771" rx="11.109999656677246" ry="11.109999656677246" fill="#231F20" fill-opacity="1"/></g><g><path d="M113.72000061035156,84.97999450683594C107.30797061035156,84.97999450683594,102.11000061035156,79.78199450683593,102.11000061035156,73.36999450683594C102.11000061035156,66.95797450683594,107.30797061035156,61.75999450683594,113.72000061035156,61.75999450683594C120.13200061035155,61.75999450683594,125.33000061035156,66.95797450683594,125.33000061035156,73.36999450683594C125.33000061035156,79.78199450683593,120.13200061035155,84.97999450683594,113.72000061035156,84.97999450683594ZM113.72000061035156,62.76000450683594C107.86026061035156,62.75999450683594,103.11000061035156,67.51025450683593,103.11000061035156,73.36999450683594C103.11000061035156,79.22969450683594,107.86026061035156,83.97999450683594,113.72000061035156,83.97999450683594C119.57970061035157,83.97999450683594,124.33000061035156,79.22969450683594,124.33000061035156,73.36999450683594C124.32450061035156,67.51254450683594,119.57750061035156,62.765514506835935,113.72000061035156,62.76000450683594Z" fill="#231F20" fill-opacity="1"/></g><g><path d="M122.53000171875,72.85999852294921C122.28451171875,72.86251852294922,122.07506171874999,72.68297852294921,122.03999171875,72.43999852294922C120.89999171875,64.66000352294922,114.03999371875,64.99999952294922,113.74999971875,65.02000452294922C113.47915671875,65.03191852294921,113.24632261875,64.82984152294922,113.22000121875,64.56000552294923C113.19705201875,64.28542352294922,113.40492271875,64.04591372294922,113.68000771875,64.03000641294922C113.76000971875,64.03000641294922,121.75000171875,63.59000352294922,123.02000171875,72.29999852294922C123.05580171875,72.56988852294921,122.86911171875,72.81879852294922,122.60000171875001,72.85999852294921L122.53000171875,72.85999852294921Z" fill="#FFFFFF" fill-opacity="1"/></g><g><path d="M109.8399964765625,66.06999711914062C109.6882014765625,66.06787711914062,109.5452424765625,65.99822711914062,109.4499964765625,65.87999711914063C109.2821044765625,65.66169711914063,109.3223418765625,65.34872711914062,109.5399934765625,65.18000011914063C110.1481934765625,64.73307811914063,110.8545334765625,64.43820211914063,111.5999934765625,64.31999969914062C111.8751034765625,64.29047391914062,112.1235934765625,64.48571011914062,112.1599834765625,64.76000211914062C112.1952634765625,65.03121211914062,112.0017134765625,65.27880111914062,111.7299934765625,65.31000511914063C111.1583434765625,65.40123711914063,110.6166834765625,65.62750711914063,110.1499934765625,65.97000711914062C110.0600284765625,66.03567711914063,109.9513704765625,66.07072711914063,109.8399964765625,66.06999711914062Z" fill="#FFFFFF" fill-opacity="1"/></g><g><path d="M130.11999509570313,132.68998605957032L129.95999109570312,132.68998605957032C129.70178219570312,132.60008605957032,129.56369019570312,132.31948605957032,129.64999389570312,132.05998605957032C132.75912809570312,122.1759860595703,135.2736180957031,112.11458605957031,137.17998809570312,101.92999305957031C137.2288380957031,101.65296905957031,137.49346809570312,101.46836855957031,137.77030809570311,101.51820373957031C138.04714809570314,101.56803895957032,138.23080809570314,101.8333280595703,138.17998809570312,102.1099850595703C136.27407809570312,112.3411860595703,133.74604809570312,122.44658605957031,130.60998509570314,132.36998605957032C130.53529309570314,132.5731860595703,130.33609009570313,132.7032860595703,130.11999509570313,132.68998605957032Z" fill="#FFFFFF" fill-opacity="1"/></g><g><path d="M115.41000392578125,160.67997941894532C115.15260392578125,160.67567941894532,114.94056392578125,160.4765794189453,114.91999392578126,160.21997941894531L113.91999816578125,147.4400024189453C113.89704892578125,147.1654204189453,114.10493492578125,146.9259186189453,114.38000492578125,146.9100036589453C114.65458692578125,146.88705441894533,114.89408892578125,147.0949404189453,114.91000392578125,147.3700104189453L115.91000392578125,160.1399794189453C115.93299392578125,160.4164794189453,115.72657392578125,160.6587794189453,115.44999392578126,160.67997941894532L115.41000392578125,160.67997941894532Z" fill="#231F20" fill-opacity="1"/></g><g><path d="M105.11000018457031,168.13999135742188L105.0399931845703,168.13999135742188C104.76684618457031,168.10369135742187,104.57453918457031,167.85329135742188,104.61000061457031,167.57999135742187L106.35000918457031,154.11000035742188C106.38547918457031,153.8334653574219,106.63863918457031,153.63821415742188,106.91511918457032,153.67416381742188C107.19156918457031,153.71009825742186,107.38639918457031,153.96359235742187,107.35000918457031,154.24000535742186L105.60999918457031,167.70999135742187C105.57487518457032,167.95849135742188,105.36096218457031,168.14249135742187,105.11000018457031,168.13999135742188Z" fill="#231F20" fill-opacity="1"/></g><g><path d="M121.61999249023438,171.0000201904297C121.37451249023438,171.0025201904297,121.16505249023437,170.8230201904297,121.12999249023437,170.58002019042968L119.30998230023438,159.5800021904297C119.26742549023437,159.3076321904297,119.44902049023437,159.05075069042968,119.71998549023438,159.00000000042968C119.99235549023437,158.9574431904297,120.24923749023438,159.1390381904297,120.29998749023437,159.41000319042968L122.11999249023438,170.4100201904297C122.16217249023437,170.68012019042968,121.97952249023437,170.9340201904297,121.70999249023437,170.98002019042968L121.61999249023438,171.0000201904297Z" fill="#231F20" fill-opacity="1"/></g><g><path d="M62.269989013671875,79.91999572753906C61.99607801367188,79.91467572753906,61.775299073671874,79.69390572753906,61.769989013671875,79.41999572753906L61.769989013671875,76.22999572753906C61.769989013671875,75.95384972753907,61.99385101367187,75.72999572753906,62.269989013671875,75.72999572753906C62.54612701367188,75.72999572753906,62.769989013671875,75.95384972753907,62.769989013671875,76.22999572753906L62.769989013671875,79.41999572753906C62.769989013671875,79.69614572753906,62.54612701367188,79.91999572753906,62.269989013671875,79.91999572753906Z" fill="#D1D3D4" fill-opacity="1"/></g><g><path d="M62.269989013671875,86.58000061035156C61.99385101367187,86.58000061035156,61.769989013671875,86.35615061035156,61.769989013671875,86.08000061035156L61.769989013671875,82.86000061035156C61.769989013671875,82.58385461035157,61.99385101367187,82.36000061035156,62.269989013671875,82.36000061035156C62.54612701367188,82.36000061035156,62.769989013671875,82.58385461035157,62.769989013671875,82.86000061035156L62.769989013671875,86.05000061035156C62.78727901367188,86.33778061035156,62.55827301367187,86.58052061035156,62.269989013671875,86.58000061035156Z" fill="#D1D3D4" fill-opacity="1"/></g><g><path d="M67.19999450683594,81.6500015258789L64.00999450683594,81.6500015258789C63.733856506835934,81.6500015258789,63.50999450683594,81.4261475258789,63.50999450683594,81.1500015258789C63.50999450683594,80.87385552587891,63.733856506835934,80.6500015258789,64.00999450683594,80.6500015258789L67.19999450683594,80.6500015258789C67.47613450683593,80.6500015258789,67.69999450683594,80.87385552587891,67.69999450683594,81.1500015258789C67.69999450683594,81.4261475258789,67.47613450683593,81.6500015258789,67.19999450683594,81.6500015258789Z" fill="#D1D3D4" fill-opacity="1"/></g><g><path d="M60.53999633789063,81.6500015258789L57.339996337890625,81.6500015258789C57.06385833789062,81.6500015258789,56.839996337890625,81.4261475258789,56.839996337890625,81.1500015258789C56.845306397890624,80.87609052587891,57.06608533789063,80.6553192158789,57.339996337890625,80.6500015258789L60.53999633789063,80.6500015258789C60.81390633789063,80.6553268458789,61.03466633789063,80.8760985258789,61.03999633789063,81.1500015258789C61.03999633789063,81.4261475258789,60.816136337890626,81.6500015258789,60.53999633789063,81.6500015258789Z" fill="#D1D3D4" fill-opacity="1"/></g><g><path d="M31.459999084472656,93.10000366210937C31.183853084472656,93.10000366210937,30.959999084472656,92.87614366210937,30.959999084472656,92.60000366210937L30.959999084472656,89.41000366210938C30.959999084472656,89.13385766210938,31.183853084472656,88.91000366210938,31.459999084472656,88.91000366210938C31.736145084472657,88.91000366210938,31.959999084472656,89.13385766210938,31.959999084472656,89.41000366210938L31.959999084472656,92.60000366210937C31.959999084472656,92.87614366210937,31.736145084472657,93.10000366210937,31.459999084472656,93.10000366210937Z" fill="#D1D3D4" fill-opacity="1"/></g><g><path d="M31.459999084472656,99.77000183105469C31.183853084472656,99.77000183105469,30.959999084472656,99.54614183105468,30.959999084472656,99.27000183105469L30.959999084472656,96.08000183105469C30.959999084472656,95.80386383105468,31.183853084472656,95.58000183105469,31.459999084472656,95.58000183105469C31.736145084472657,95.58000183105469,31.959999084472656,95.80386383105468,31.959999084472656,96.08000183105469L31.959999084472656,99.27000183105469C31.959999084472656,99.54614183105468,31.736145084472657,99.77000183105469,31.459999084472656,99.77000183105469Z" fill="#D1D3D4" fill-opacity="1"/></g><g><path d="M36.389996948242185,94.86000061035156L33.19999694824219,94.86000061035156C32.92385094824219,94.86000061035156,32.69999694824219,94.63613861035157,32.69999694824219,94.36000061035156C32.69999694824219,94.08386261035156,32.92385094824219,93.86000061035156,33.19999694824219,93.86000061035156L36.389996948242185,93.86000061035156C36.66614694824219,93.86000061035156,36.889996948242185,94.08386261035156,36.889996948242185,94.36000061035156C36.889996948242185,94.63613861035157,36.66614694824219,94.86000061035156,36.389996948242185,94.86000061035156Z" fill="#D1D3D4" fill-opacity="1"/></g><g><path d="M29.719991149902345,94.86000061035156L26.529991149902344,94.86000061035156C26.253845149902343,94.86000061035156,26.029991149902344,94.63613861035157,26.029991149902344,94.36000061035156C26.029991149902344,94.08386261035156,26.253845149902343,93.86000061035156,26.529991149902344,93.86000061035156L29.719991149902345,93.86000061035156C29.996141149902343,93.86000061035156,30.219991149902345,94.08386261035156,30.219991149902345,94.36000061035156C30.219991149902345,94.63613861035157,29.996141149902343,94.86000061035156,29.719991149902345,94.86000061035156Z" fill="#D1D3D4" fill-opacity="1"/></g><g><path d="M160.97000122070312,71.10999816894531C160.69386322070312,71.10999816894531,160.47000122070312,70.88614816894531,160.47000122070312,70.60999816894531L160.47000122070312,67.41999816894531C160.47000122070312,67.14385216894532,160.69386322070312,66.91999816894531,160.97000122070312,66.91999816894531C161.24613922070313,66.91999816894531,161.47000122070312,67.14385216894532,161.47000122070312,67.41999816894531L161.47000122070312,70.60999816894531C161.47000122070312,70.88614816894531,161.24613922070313,71.10999816894531,160.97000122070312,71.10999816894531Z" fill="#D1D3D4" fill-opacity="1"/></g><g><path d="M160.97000122070312,77.77000183105469C160.69386322070312,77.77000183105469,160.47000122070312,77.54615183105469,160.47000122070312,77.27000183105469L160.47000122070312,74.08000183105469C160.47531128070312,73.80609083105469,160.69609022070313,73.58531952105469,160.97000122070312,73.58000183105469C161.24613922070313,73.58000183105469,161.47000122070312,73.80385583105469,161.47000122070312,74.08000183105469L161.47000122070312,77.27000183105469C161.47000122070312,77.54615183105469,161.24613922070313,77.77000183105469,160.97000122070312,77.77000183105469Z" fill="#D1D3D4" fill-opacity="1"/></g><g><path d="M165.89999145507812,72.86000061035156L162.70999145507812,72.86000061035156C162.43385345507812,72.86000061035156,162.20999145507812,72.63614661035156,162.20999145507812,72.36000061035156C162.20999145507812,72.08385461035157,162.43385345507812,71.86000061035156,162.70999145507812,71.86000061035156L165.89999145507812,71.86000061035156C166.17613145507812,71.86000061035156,166.39999145507812,72.08385461035157,166.39999145507812,72.36000061035156C166.39999145507812,72.63614661035156,166.17613145507812,72.86000061035156,165.89999145507812,72.86000061035156Z" fill="#D1D3D4" fill-opacity="1"/></g><g><path d="M159.23998779296875,72.86000061035156L156.04998779296875,72.86000061035156C155.77384979296875,72.86000061035156,155.54998779296875,72.63614661035156,155.54998779296875,72.36000061035156C155.54998779296875,72.08385461035157,155.77384979296875,71.86000061035156,156.04998779296875,71.86000061035156L159.23998779296875,71.86000061035156C159.51612779296875,71.86000061035156,159.73998779296875,72.08385461035157,159.73998779296875,72.36000061035156C159.73467779296874,72.63391161035156,159.51389779296875,72.85468261035156,159.23998779296875,72.86000061035156Z" fill="#D1D3D4" fill-opacity="1"/></g><g><path d="M197.04000854492188,89.77000183105469C196.76385454492188,89.77000183105469,196.54000854492188,89.54615183105469,196.54000854492188,89.27000183105469L196.54000854492188,86.08000183105469C196.54000854492188,85.80385583105469,196.76385454492188,85.58000183105469,197.04000854492188,85.58000183105469C197.31616254492187,85.58000183105469,197.54000854492188,85.80385583105469,197.54000854492188,86.08000183105469L197.54000854492188,89.27000183105469C197.54000854492188,89.54615183105469,197.31616254492187,89.77000183105469,197.04000854492188,89.77000183105469Z" fill="#D1D3D4" fill-opacity="1"/></g><g><path d="M197.04000854492188,96.43000549316406C196.76385454492188,96.43000549316406,196.54000854492188,96.20614549316406,196.54000854492188,95.93000549316406L196.54000854492188,92.74000549316406C196.54000854492188,92.46386749316406,196.76385454492188,92.24000549316406,197.04000854492188,92.24000549316406C197.31390354492189,92.24534607316406,197.5346675449219,92.46611049316407,197.54000854492188,92.74000549316406L197.54000854492188,95.93000549316406C197.54000854492188,96.20614549316406,197.31616254492187,96.43000549316406,197.04000854492188,96.43000549316406Z" fill="#D1D3D4" fill-opacity="1"/></g><g><path d="M201.95998901367187,91.50999450683594L198.76998901367188,91.50999450683594C198.4960630136719,91.50466950683594,198.27529907367187,91.28390550683594,198.26998901367188,91.00999450683594C198.26998901367188,90.73384850683594,198.49383501367188,90.50999450683594,198.76998901367188,90.50999450683594L201.95998901367187,90.50999450683594C202.23614901367188,90.50999450683594,202.45998901367187,90.73384850683594,202.45998901367187,91.00999450683594C202.45998901367187,91.28613250683594,202.23614901367188,91.50999450683594,201.95998901367187,91.50999450683594Z" fill="#D1D3D4" fill-opacity="1"/></g><g><path d="M195.2999853515625,91.50999450683594L192.1099853515625,91.50999450683594C191.8338313515625,91.50999450683594,191.6099853515625,91.28613250683594,191.6099853515625,91.00999450683594C191.6099853515625,90.73384850683594,191.8338313515625,90.50999450683594,192.1099853515625,90.50999450683594L195.2999853515625,90.50999450683594C195.5761453515625,90.50999450683594,195.7999853515625,90.73384850683594,195.7999853515625,91.00999450683594C195.7999853515625,91.28613250683594,195.5761453515625,91.50999450683594,195.2999853515625,91.50999450683594Z" fill="#D1D3D4" fill-opacity="1"/></g><g><path d="M174.16000366210938,40.94C173.88384966210938,40.94,173.66000366210938,40.71615,173.66000366210938,40.44L173.66000366210938,37.25C173.66000366210938,36.973854,173.88384966210938,36.75,174.16000366210938,36.75C174.43615766210937,36.75,174.66000366210938,36.973854,174.66000366210938,37.25L174.66000366210938,40.44C174.66000366210938,40.71615,174.43615766210937,40.94,174.16000366210938,40.94Z" fill="#D1D3D4" fill-opacity="1"/></g><g><path d="M174.16000366210938,47.60999816894531C173.88384966210938,47.60999816894531,173.66000366210938,47.38614816894531,173.66000366210938,47.10999816894531L173.66000366210938,43.91999816894531C173.66000366210938,43.643852168945315,173.88384966210938,43.41999816894531,174.16000366210938,43.41999816894531C174.43615766210937,43.41999816894531,174.66000366210938,43.643852168945315,174.66000366210938,43.91999816894531L174.66000366210938,47.10999816894531C174.66000366210938,47.38614816894531,174.43615766210937,47.60999816894531,174.16000366210938,47.60999816894531Z" fill="#D1D3D4" fill-opacity="1"/></g><g><path d="M179.08999389648437,42.68000030517578L175.89999389648438,42.68000030517578C175.62383989648438,42.68000030517578,175.39999389648438,42.456138305175784,175.39999389648438,42.18000030517578C175.39999389648438,41.903854305175784,175.62383989648438,41.68000030517578,175.89999389648438,41.68000030517578L179.08999389648437,41.68000030517578C179.36615389648438,41.68000030517578,179.58999389648437,41.903854305175784,179.58999389648437,42.18000030517578C179.58999389648437,42.456138305175784,179.36615389648438,42.68000030517578,179.08999389648437,42.68000030517578Z" fill="#D1D3D4" fill-opacity="1"/></g><g><path d="M172.41998046875,42.68000030517578L169.22998046875,42.68000030517578C168.95382646875,42.68000030517578,168.72998046875,42.456138305175784,168.72998046875,42.18000030517578C168.72998046875,41.903854305175784,168.95382646875,41.68000030517578,169.22998046875,41.68000030517578L172.41998046875,41.68000030517578C172.69614046875,41.68000030517578,172.91998046875,41.903854305175784,172.91998046875,42.18000030517578C172.91998046875,42.456138305175784,172.69614046875,42.68000030517578,172.41998046875,42.68000030517578Z" fill="#D1D3D4" fill-opacity="1"/></g><g><path d="M89.91999549560546,198.56999946289062L89.83999549560546,198.56999946289062C89.56719549560547,198.53859946289063,89.37069549560547,198.2930994628906,89.39999549560547,198.0199994628906C89.39999549560547,197.80999946289063,91.71999549560547,177.68999946289063,82.51999549560547,169.23999946289064C78.77999549560546,165.79999946289064,73.58999549560546,164.72999946289062,67.08999549560548,166.05999946289063C66.94519549560547,166.09499946289063,66.79239549560546,166.0577994628906,66.67999549560547,165.9599994628906C66.56259549560548,165.87289946289062,66.49229549560548,165.73619946289062,66.48999549560547,165.58999946289063C66.48999549560547,165.39999946289063,65.84999549560547,146.58999946289063,53.97999549560547,138.65999946289062C47.03999549560547,134.01999946289064,37.619995495605465,133.89999946289063,25.97999549560547,138.3299994628906C25.80919549560547,138.39109946289062,25.618795495605468,138.35679946289062,25.47999549560547,138.23999946289064C25.341795495605467,138.11749946289063,25.277395495605468,137.93179946289064,25.30999549560547,137.74999946289063C25.30999549560547,137.66999946289062,27.089995495605468,129.47001946289063,22.56999549560547,125.11001946289062C19.429995495605468,122.11001546289063,13.989995495605468,121.56001246289063,6.410003495605469,123.55001946289063C6.141235495605469,123.62574946289062,5.863609295605468,123.46190946289063,5.800003095605469,123.19001946289063C5.729797395605469,122.92512946289062,5.885887495605469,122.65307946289063,6.150001495605469,122.58001946289062C14.09000549560547,120.50001546289063,19.84999549560547,121.11001546289063,23.269995495605468,124.40001946289063C27.269995495605468,128.30001946289062,26.79999549560547,134.73999946289064,26.449995495605467,137.08999946289063C38.02999549560547,132.84999946289062,47.44999549560547,133.08999946289063,54.53999549560547,137.83999946289063C60.97999549560547,142.15999946289062,64.15999549560547,149.46999946289063,65.68999549560547,154.83999946289063C66.62729549560547,158.14329946289064,67.22049549560546,161.53469946289061,67.45999549560547,164.9599994628906C74.02999549560546,163.73999946289064,79.31999549560547,164.9599994628906,83.19999549560546,168.49999946289063C92.76999549560547,177.29999946289064,90.49999549560548,197.27999946289063,90.39999549560547,198.11999946289063C90.37519549560547,198.36899946289063,90.17009549560547,198.5611994628906,89.91999549560546,198.56999946289062Z" fill="#D1D3D4" fill-opacity="1"/></g><g><path d="M188.64999145507812,195.77000854492186C143.50299145507813,237.04850854492187,73.62809145507813,234.61690854492187,31.459991455078125,190.30000854492187C32.18999445507812,189.92000854492187,32.93999145507812,189.57000854492188,33.709991455078125,189.30000854492187Q53.499991455078124,181.30000854492187,64.25999145507812,197.79000854492188Q69.41999145507813,170.54000854492188,100.83999145507812,170.54000854492188Q132.25999145507814,170.54000854492188,139.56999145507814,191.98000854492187Q146.01999145507813,178.98000854492187,160.21999145507812,179.92000854492187Q174.41999145507813,180.86000854492187,176.56999145507814,198.60000854492188C180.37499145507812,196.88080854492188,184.47799145507813,195.91950854492188,188.64999145507812,195.77000854492186Z" fill="#FFFFFF" fill-opacity="1"/></g><g><path d="M112.83999307861328,225.70000305175782C81.92719307861327,225.8313030517578,52.33869307861328,213.1619030517578,31.099998078613282,190.70000305175782C30.991096478613283,190.58530305175782,30.94288637861328,190.4258030517578,30.97000121861328,190.2700030517578C30.99092867861328,190.1140030517578,31.088531078613283,189.9789030517578,31.230003078613283,189.91000305175783C31.97465307861328,189.51770305175782,32.73900307861328,189.1638030517578,33.52000307861328,188.85000305175782C43.939993078613284,184.6200030517578,51.859993078613286,187.20000305175782,56.66999307861328,190.11000305175781C59.49259307861328,191.83110305175782,61.98509307861328,194.04240305175782,64.02999307861327,196.64000305175782C65.41999307861329,191.54000305175782,72.95999307861328,170.0500030517578,100.83999307861328,170.0500030517578C128.3899930786133,170.0500030517578,137.7195930786133,186.64000305175782,139.6395930786133,190.86000305175781C141.4595930786133,187.86000305175781,148.12959307861328,178.66000305175783,160.2495930786133,179.4300030517578C173.09959307861328,180.2400030517578,176.37959307861328,194.5800030517578,176.9595930786133,197.8800030517578C180.66459307861328,196.33280305175782,184.61759307861328,195.46560305175782,188.62959307861328,195.32000305175782C188.83759307861328,195.31830305175782,189.02659307861327,195.4401030517578,189.10959307861327,195.6300030517578C189.18859307861328,195.8236030517578,189.14059307861328,196.0455030517578,188.98959307861327,196.1900030517578C168.1915930786133,215.20620305175783,141.02159307861328,225.7356030517578,112.83999307861328,225.70000305175782ZM32.28999307861328,190.4400030517578C73.97239307861328,233.74210305175782,142.42659307861328,236.35660305175782,187.28959307861328,196.36000305175781C183.6795930786133,196.63330305175782,180.14459307861327,197.5299030517578,176.8395930786133,199.01000305175782C176.69559307861329,199.0847030517578,176.5245930786133,199.0847030517578,176.37959307861328,199.01000305175782C176.2385930786133,198.9307030517578,176.1425930786133,198.79020305175783,176.1195930786133,198.6300030517578C175.6495930786133,195.54860305175782,174.70159307861329,192.5594030517578,173.3095930786133,189.7700030517578C170.3095930786133,183.9000030517578,165.9295930786133,180.7700030517578,160.23959307861327,180.39000305175782C146.5295930786133,179.52998305175782,140.12959307861328,192.0500030517578,140.06959307861328,192.17000305175782C139.97759307861327,192.34810305175782,139.79059307861328,192.45710305175783,139.5895930786133,192.45000305175782C139.3865930786133,192.43890305175782,139.21159307861328,192.30360305175782,139.1495930786133,192.11000305175781C139.06959307861328,191.9000030517578,131.54959307861327,171.00997905175782,100.88999307861329,171.00997905175782C70.22999307861329,171.00997905175782,64.83999307861328,197.57000305175782,64.74999307861327,197.86000305175781C64.71199307861329,198.06050305175782,64.55589307861328,198.2177030517578,64.35579307861329,198.25730305175782C64.15559307861328,198.29690305175782,63.95149307861328,198.2109030517578,63.83999307861328,198.04000305175782C61.76819307861328,195.1712030517578,59.139093078613286,192.74960305175782,56.109993078613286,190.92000305175782C49.40999307861328,186.92000305175782,41.939993078613284,186.48000305175782,33.90000307861328,189.7400030517578C33.369993078613284,189.9400030517578,32.83999307861328,190.1800030517578,32.28999307861328,190.4400030517578Z" fill="#D1D3D4" fill-opacity="1"/></g><g><path d="M151.43997890625,201.19997641601563C151.29757890625,201.2010764160156,151.16197890625,201.13877641601562,151.06997890625001,201.02997641601561C144.62997890625,193.91999641601564,139.06997890625001,192.13999641601563,135.48000890625,191.89999341601563C133.33388890625,191.70388841601562,131.17574890625,192.11265641601562,129.25001490625,193.07998641601563C129.01774590625,193.19644641601562,128.73500090625,193.11558641601562,128.59941100625,192.8939564160156C128.46382140625,192.67231641601563,128.52056884625,192.38375641601561,128.73001090625,192.22997641601563C128.83001690625,192.16998641601563,138.93997890625,186.13998641601563,151.80997890625,200.35998641601563C151.93657890625,200.50887641601562,151.96697890625,200.71703641601562,151.88817890625,200.89590641601563C151.80937890625,201.07477641601562,151.63537890625,201.19287641601562,151.43997890625,201.19997641601563Z" fill="#D1D3D4" fill-opacity="1"/></g><g><path d="M174.17999226953125,177.6299862060547C173.91873126953126,177.6308862060547,173.70086666953125,177.4303862060547,173.67999266953126,177.1699862060547C173.67999266953126,176.76998620605468,173.01998926953124,167.4499862060547,179.67999626953124,160.97000620605468C184.58002626953126,156.19000620605468,192.10002626953124,154.2799992060547,202.02002626953126,155.30999720605467C202.29612626953124,155.33763120605468,202.49762626953125,155.5838772060547,202.46992626953124,155.8600162060547C202.44232626953124,156.1361362060547,202.19612626953125,156.33759620605468,201.92002626953126,156.30999620605468C192.31002626953125,155.30999720605467,185.05992626953125,157.13000620605467,180.37997626953126,161.69000620605468C174.05996726953126,167.8499862060547,174.67996626953126,177.0099862060547,174.68997626953126,177.0999862060547C174.71298626953126,177.3764862060547,174.50656126953126,177.6187862060547,174.22998026953124,177.6399862060547L174.17999226953125,177.6299862060547Z" fill="#D1D3D4" fill-opacity="1"/></g><g><path d="M57.33999328613281,55.9800048828125C49.71846328613281,55.9800048828125,43.53999328613281,49.8015048828125,43.53999328613281,42.1800048828125C43.53999328613281,34.5584748828125,49.71846328613281,28.3800048828125,57.33999328613281,28.3800048828125C64.96149328613282,28.3800048828125,71.1399932861328,34.5584748828125,71.1399932861328,42.1800048828125C71.13449328613281,49.799204882812504,64.9592932861328,55.9745048828125,57.33999328613281,55.9800048828125ZM57.33999328613281,29.3800048828125C50.270753286132816,29.3800148828125,44.53999328613281,35.110764882812504,44.53999328613281,42.1800048828125C44.53999328613281,49.2492048828125,50.270753286132816,54.9800048828125,57.33999328613281,54.9800048828125C64.40919328613282,54.9800048828125,70.1399932861328,49.2492048828125,70.1399932861328,42.1800048828125C70.13449328613281,35.1130348828125,64.40699328613282,29.3855048828125,57.33999328613281,29.3800048828125Z" fill="#D1D3D4" fill-opacity="1"/></g><g><path d="M40.91004794921875,158.35999614257813C40.71884794921875,158.3603961425781,40.544147949218754,158.2516961425781,40.46004794921875,158.07999614257812C28.46004794921875,133.08000614257813,10.89000694921875,140.9100061425781,10.72000894921875,140.99000614257812C10.46871194921875,141.10873614257812,10.16874694921875,141.00128614257812,10.05000304921875,140.74998614257814C9.93125914921875,140.49870614257813,10.03871914921875,140.19872614257812,10.29000894921875,140.08000614257813C10.47000894921875,139.9999961425781,28.90004794921875,131.72000614257811,41.36004794921875,157.63999614257813C41.48204794921875,157.88849614257813,41.378947949218755,158.18879614257813,41.13004794921875,158.30999614257811C41.06224794921875,158.34549614257813,40.98644794921875,158.36269614257813,40.91004794921875,158.35999614257813Z" fill="#D1D3D4" fill-opacity="1"/></g></g></svg>