<svg transform="scale(1)" version="1.1" id="Layer_1" xmlns="http://www.w3.org/2000/svg"
  xmlns:xlink="http://www.w3.org/1999/xlink" x="0px" y="0px" viewBox="0 0 500 500" xml:space="preserve"
  class="show_show__wrapper__graphic__5Waiy ">
  <title>React</title>
  <style type="text/css">
    .st0 {
      fill: #000111;
    }

    .st1 {
      fill: #FFC2A7;
    }

    .st2 {
      fill: url(#SVGID_1_);
    }

    .st3 {
      fill: url(#SVGID_00000099656266427387046950000001778713004168751028_);
    }

    .st4 {
      fill: #FED490;
    }

    .st5 {
      fill: #D88260;
    }

    .st6 {
      fill: url(#SVGID_00000176030267135373296750000015729272042560659848_);
    }

    .st7 {
      fill: #FFFFFF;
    }

    .st8 {
      fill: #005045;
    }

    .st9 {
      fill: url(#SVGID_00000020370555787064467330000009456951498793534346_);
    }

    .st10 {
      fill: url(#SVGID_00000036955121974454783330000011408545380118630838_);
    }

    .st11 {
      fill: url(#SVGID_00000009582862996372199990000002847074678480985221_);
    }

    .st12 {
      fill: url(#SVGID_00000103251427939583862970000016096770575939317401_);
    }

    .st13 {
      fill: url(#SVGID_00000091709483280193163040000015702343357141671321_);
    }

    .st14 {
      fill: url(#SVGID_00000065794523821458972620000016468329304411113641_);
    }

    .st15 {
      fill: url(#SVGID_00000107551549393836595370000012903105633610257082_);
    }
  </style>
  <g id="mouse">
    <path class="st0" d="M114.8,393c0,0,3-18.5,24.8-21.2s45.7,22,45.7,22L114.8,393z"></path>
    <path class="st0" d="M118.1,390.5c-0.5,0-0.9-0.2-1.1-0.6c-0.2-0.3-16.8-24.5-36.7-28.7c0.6,1.3,1.1,2.6,1.6,4
		c2.5,7.3,2.2,13.7-0.8,16.8c-1.3,1.3-3.6,2.6-7.3,1.4c-8.2-2.5-14.6-10.1-14.1-16.4c0.2-2.7,1.9-7.5,11.1-8.8
		c1.6-0.2,3.2-0.3,4.8-0.3c-6-9.6-17.1-18.7-33.9-21.1c-0.7-0.1-1.3-0.8-1.2-1.5c0.1-0.7,0.8-1.3,1.5-1.2c0,0,0.1,0,0.1,0
		c18.7,2.7,30.7,13.3,36.9,24.1c8.3,1.2,17.1,5.9,25.9,13.8c5.4,4.9,10.3,10.4,14.5,16.4c0.4,0.6,0.3,1.5-0.4,1.9c0,0,0,0,0,0
		C118.6,390.4,118.4,390.5,118.1,390.5z M74.6,360.6c-1.2,0-2.4,0.1-3.6,0.2c-3.8,0.5-8.4,2.1-8.8,6.4c-0.4,5.1,5.3,11.5,12.2,13.6
		c2,0.6,3.5,0.4,4.6-0.7c2.2-2.3,2.3-7.9,0.2-14c-0.6-1.9-1.4-3.7-2.3-5.4C76.2,360.6,75.4,360.6,74.6,360.6z"></path>
  </g>
  <g id="computer">
    <path class="st0" d="M287.5,314.6H116.8c-0.6,0-1.1-0.4-1.3-1L81.8,205.4c-0.1-0.4-0.1-0.9,0.2-1.2c0.3-0.4,0.7-0.6,1.1-0.6h201.1
		c0.6,0,1.1,0.4,1.3,0.9l29.1,79.7c0.3,0.7-0.1,1.5-0.8,1.7s-1.5-0.1-1.7-0.8l0,0l-28.8-78.8H84.9l32.9,105.6h169.7
		c0.8,0,1.4,0.6,1.4,1.4C288.9,314,288.3,314.6,287.5,314.6z"></path>
    <path class="st0"
      d="M116.8,314.4h-15.2c-0.6,0-1.1-0.4-1.3-1l-34.5-108c-0.1-0.4-0.1-0.9,0.2-1.2c0.3-0.3,0.7-0.6,1.1-0.6h16
		c0.8,0,1.4,0.6,1.4,1.4s-0.6,1.4-1.4,1.4H69l33.7,105.3h14.2c0.8,0,1.4,0.6,1.4,1.4C118.2,313.8,117.6,314.4,116.8,314.4z"></path>
    <path class="st0" d="M206.5,357.6c-0.6,0-1.1-0.4-1.3-0.9l-15-43.1c-0.2-0.7,0.2-1.5,0.9-1.7c0.7-0.2,1.5,0.1,1.7,0.8l15,43.1
		c0.2,0.7-0.1,1.5-0.8,1.7c0,0,0,0,0,0C206.8,357.6,206.6,357.6,206.5,357.6z"></path>
    <path class="st0" d="M273.2,368.3c-0.6,0-1.1-0.3-1.3-0.9l-21-53.8c-0.3-0.7,0.1-1.5,0.8-1.8c0.7-0.3,1.5,0.1,1.8,0.8l21,53.8
		c0.3,0.7-0.1,1.5-0.8,1.8c0,0,0,0,0,0C273.5,368.3,273.3,368.3,273.2,368.3z"></path>
    <path class="st0" d="M185.1,224.3H90.2c-0.8,0-1.4-0.6-1.4-1.4s0.6-1.4,1.4-1.4h94.9c0.8,0,1.4,0.6,1.4,1.4
		S185.9,224.3,185.1,224.3z"></path>
    <path class="st0" d="M109.6,214.4h-13c-0.8,0-1.4-0.6-1.4-1.4s0.6-1.4,1.4-1.4h13c0.8,0,1.4,0.6,1.4,1.4S110.4,214.4,109.6,214.4
		L109.6,214.4z"></path>
    <path class="st0"
      d="M131,214.4h-13c-0.8,0-1.4-0.6-1.4-1.4s0.6-1.4,1.4-1.4l0,0h13c0.8,0,1.4,0.6,1.4,1.4S131.8,214.4,131,214.4z">
    </path>
    <path class="st0"
      d="M152.3,214.4h-13c-0.8,0-1.4-0.6-1.4-1.4s0.6-1.4,1.4-1.4h13c0.8,0,1.4,0.6,1.4,1.4S153.1,214.4,152.3,214.4z">
    </path>
  </g>
  <g id="character">
    <path class="st1" d="M270.1,364.5l-56.8-8.6c-3.1-0.2-6-1.4-8.4-3.5l-20.5-17.5l-27.8-8.2c-4.3-0.7-14.7,6.3-2.9,14.8l6.4,5.5
		l-17.1-2.9c-2.3-0.4-4.6,0.1-6.5,1.3l-14.1,8.9c-5.8,3.6-4.5,10.4,8.9,13.1c-11.2,4.6-13.1,21.4,3.2,18l14-1.1c0,0,12,0.6,16.3,3.7
		s11.5,7.2,11.5,7.2l152.1-1.5L270.1,364.5z"></path>
    <linearGradient id="SVGID_1_" gradientUnits="userSpaceOnUse" x1="282.4146" y1="255.0234" x2="362.1346" y2="148.4634"
      gradientTransform="matrix(1 0 0 -1 0 502)">
      <stop offset="0" style="stop-color: rgb(197, 166, 250);"></stop>
      <stop offset="1" style="stop-color: rgb(124, 58, 237);"></stop>
    </linearGradient>
    <path class="st2" d="M329.5,393.7H381c7.5,0,13.6-6.1,13.6-13.5l0.3-63c0,0,1.7-22-13.4-23.2l-65.9,7.7c0,0-14.3,3.4-11.2,19.4
		l11.6,61.6C317.4,389,323,393.7,329.5,393.7z"></path>
    <linearGradient id="SVGID_00000134945999899052492310000015171183305342827439_" gradientUnits="userSpaceOnUse"
      x1="247.8619" y1="229.1714" x2="327.5819" y2="122.6114" gradientTransform="matrix(1 0 0 -1 0 502)">
      <stop offset="0" style="stop-color: rgb(197, 166, 250);"></stop>
      <stop offset="1" style="stop-color: rgb(124, 58, 237);"></stop>
    </linearGradient>
    <path d="M315.7,301.6c-7.6,1.7-14.2,6.2-18.5,12.6
		l-27,50.3l53.2,27.2l9.2-41L315.7,301.6z"
      style="fill: url(&quot;#SVGID_00000134945999899052492310000015171183305342827439_&quot;);"></path>
    <path class="st4" d="M270.1,365.9c-0.8,0-1.4-0.6-1.4-1.3c0-0.7,0.5-1.3,1.2-1.4c0.8-0.1,78.1-11,88.6-25.8c0.8-1,1.1-2.2,1-3.5
		c-3.4-16.8-43.8-30.9-44.2-31c-0.7-0.2-1.1-1-0.9-1.7s1-1.1,1.7-0.9c0,0,0.1,0,0.1,0c1.7,0.6,42.4,14.7,46,33c0.4,2-0.1,4-1.4,5.6
		c-11.2,15.7-87.2,26.5-90.5,26.9L270.1,365.9z"></path>
    <circle class="st4" cx="342.8" cy="313.4" r="7.1"></circle>
    <path class="st0" d="M325.8,388.2c-0.7,0-1.4-0.6-1.4-1.3c0-0.3,0.1-0.7,0.4-0.9l25.5-28.1c2.8-3.4,5.3-10.7,4.5-17.6
		c-0.3-4.1-2.3-7.8-5.4-10.4c-0.6-0.5-0.7-1.3-0.2-1.9c0.5-0.5,1.3-0.7,1.8-0.2c3.6,2.8,5.9,7,6.5,12.3c0.9,7.7-1.9,15.7-5.1,19.6
		l-25.6,28.2C326.5,388.1,326.1,388.2,325.8,388.2z"></path>
    <path class="st5" d="M172,350.5c-0.1,0-0.3,0-0.4,0c-3.8-1.1-7.7-1.8-11.6-2.2c-0.8-0.1-1.3-0.7-1.3-1.5c0.1-0.8,0.7-1.3,1.5-1.3
		c4.1,0.4,8.2,1.1,12.2,2.2c0.7,0.2,1.1,1,0.9,1.7C173.1,350.1,172.6,350.5,172,350.5z"></path>
    <path class="st5" d="M131.2,368.7c-0.8,0-1.4-0.6-1.4-1.4c0-0.6,0.3-1.1,0.8-1.3c0.5-0.2,12-4.9,19.2-5.9
		c5.1-0.6,10.3-0.4,15.3,0.6c0.7,0.2,1.2,0.9,1,1.6c-0.2,0.7-0.8,1.1-1.6,1c-4.7-0.9-9.6-1.1-14.4-0.5c-6.9,1-18.5,5.7-18.6,5.8
		C131.6,368.7,131.4,368.7,131.2,368.7z"></path>
    <path class="st5" d="M258,376c-0.2,0-0.5-0.1-0.7-0.2c-0.6-0.4-0.9-1.2-0.5-1.8c0,0,0,0,0,0c5.9-9.9,14.8-11.5,15.1-11.6
		c0.7-0.1,1.4,0.4,1.5,1.1c0.1,0.7-0.4,1.4-1.1,1.5c-0.1,0-8,1.5-13.2,10.3C258.9,375.8,258.5,376,258,376z"></path>
    <path class="st1" d="M370.9,265.5c-1.6,7-6.1,13.1-12.4,16.6l0,0c-12.5,7.2-28.5,2.9-35.7-9.6s-2.9-28.5,9.6-35.7
		c12.5-7.2,28.5-2.9,35.7,9.6C371.4,252.2,372.4,259,370.9,265.5L370.9,265.5z"></path>
    <ellipse class="st1" transform="matrix(0.9993 -3.769019e-02 3.769019e-02 0.9993 -9.5928 12.1484)" cx="317.4"
      cy="260.5" rx="8.1" ry="3.6"></ellipse>
    <linearGradient id="SVGID_00000102506644051185788880000005868081227399236269_" gradientUnits="userSpaceOnUse"
      x1="280.5204" y1="253.0496" x2="302.8604" y2="154.3596"
      gradientTransform="matrix(0.9777 -0.2101 -0.2101 -0.9777 91.9387 477.8302)">
      <stop offset="0" style="stop-color: rgb(0, 167, 111);"></stop>
      <stop offset="0.78" style="stop-color: rgb(0, 120, 104);"></stop>
      <stop offset="0.91" style="stop-color: rgb(0, 120, 104);"></stop>
    </linearGradient>
    <path d="M370.9,265.5c-1.6,7-6.1,13.1-12.4,16.6
		l0,0c-4.7-3.8,2-12.2,2-12.2c6.8,1,10.1-12.7,3.2-15s-9.4,5.8-9.4,5.8c-22.9,1.6-28.5-18.1-28.6-18.2c9.4-11,25.9-12.2,36.8-2.8
		C369.9,246,373.1,256,370.9,265.5L370.9,265.5z"
      style="fill: url(&quot;#SVGID_00000102506644051185788880000005868081227399236269_&quot;);"></path>
    <path class="st5"
      d="M358.5,267.4c1.2,0.3,2.5,0,3.6-0.7c2-1.4,2.5-4.2,1.1-6.2c-0.9-1.2-2.3-1.9-3.8-1.9l1.3,1.7
		c0-0.1,0.1-0.2,0.1-0.3c-0.1,0.3,0-0.1,0.1-0.1l0.1-0.1c-0.1,0.1-0.1,0.1,0,0c0.1-0.1,0.2-0.2,0.2-0.2c0.1-0.1,0.1,0,0,0l0.2-0.1
		c0.1,0,0.4-0.1,0.1,0l0.3-0.1c-0.2,0.1,0,0,0.1,0s0.4,0.1,0.1,0l0.3,0.1c-0.2-0.1,0,0,0.1,0s0.3,0.2,0.1,0c0.1,0.1,0.2,0.2,0.3,0.2
		s-0.1-0.1,0.1,0.1c0,0,0.2,0.4,0.1,0.2s0.1,0.2,0.1,0.3c0.2,0.7,0.9,1.2,1.6,1c0.7-0.2,1.2-0.9,1-1.6c0,0,0-0.1,0-0.1
		c-0.5-2.1-2.6-3.4-4.7-2.9c-1.4,0.3-2.6,1.5-2.9,2.9c-0.2,0.7,0.2,1.5,1,1.7c0.1,0,0.2,0,0.3,0c0.1,0,0.2,0,0.3,0s-0.2,0,0,0
		c0.2,0,0.3,0.1,0.5,0.1c-0.2-0.1,0,0,0.1,0c0.1,0,0.1,0.1,0.2,0.1c0.1,0,0.2,0.1,0.1,0l0.2,0.2l0.2,0.2c0.1,0.1-0.1-0.1,0,0
		s0.1,0.2,0.1,0.3s0.1,0.1,0,0l0.1,0.3c0,0,0.1,0.3,0,0.1c0,0.2,0,0.4,0,0.6s0-0.2,0,0s0,0.2-0.1,0.3c0,0.1,0,0.2-0.1,0.2
		c0.1-0.2,0,0,0,0.1l-0.1,0.2c-0.1,0.1,0.1-0.1,0,0.1l-0.2,0.2c-0.2,0.2,0.1,0-0.1,0l-0.5,0.3c0.1-0.1,0.1,0,0,0l-0.3,0.1
		c0,0-0.3,0.1-0.1,0s-0.1,0-0.2,0h-0.2c-0.4,0,0.2,0.1-0.1,0c-0.7-0.2-1.5,0.3-1.6,1c-0.2,0.7,0.2,1.4,0.9,1.6L358.5,267.4z"></path>
    <ellipse class="st7" transform="matrix(0.4289 -0.9033 0.9033 0.4289 -44.0185 443.4704)" cx="328.7" cy="256.6"
      rx="3.8" ry="3.2"></ellipse>
    <ellipse class="st8" transform="matrix(0.4289 -0.9033 0.9033 0.4289 -44.3126 442.6906)" cx="328" cy="256.4" rx="2.5"
      ry="2.1"></ellipse>
    <linearGradient id="SVGID_00000065069755427828893370000014810048068313193094_" gradientUnits="userSpaceOnUse"
      x1="326.611" y1="263.4807" x2="348.961" y2="164.8007"
      gradientTransform="matrix(0.9777 -0.2101 -0.2101 -0.9777 91.9387 477.8302)">
      <stop offset="0" style="stop-color: rgb(0, 167, 111);"></stop>
      <stop offset="0.78" style="stop-color: rgb(0, 120, 104);"></stop>
      <stop offset="0.91" style="stop-color: rgb(0, 120, 104);"></stop>
    </linearGradient>
    <circle cx="419.1" cy="287.8" r="55.1"
      style="fill: url(&quot;#SVGID_00000065069755427828893370000014810048068313193094_&quot;);"></circle>
    <path class="st5" d="M333.8,273.6c-3.7,0-6.8-2.8-7-2.9c-0.6-0.5-0.6-1.4-0.1-1.9c0,0,0,0,0,0c0.5-0.5,1.4-0.6,1.9-0.1
		c0,0,3,2.7,6,2.1c1.6-0.3,2.9-1.6,4-3.8c0.3-0.7,1.1-1,1.8-0.6s1,1.1,0.6,1.8c-1.5,3-3.5,4.8-6,5.3
		C334.6,273.5,334.2,273.6,333.8,273.6z"></path>
    <path class="st5" d="M341,269.1c-0.5,0-1-0.1-1.5-0.2c-1.7-0.7-3.2-2-4-3.7c-0.4-0.7-0.1-1.5,0.5-1.8c0.7-0.4,1.5-0.1,1.8,0.5
		c0,0,0.1,0.1,0.1,0.1c0.5,1,1.3,1.8,2.3,2.3c0.7,0.2,1.5,0.1,2.1-0.3c0.7-0.4,1.5-0.1,1.9,0.5c0.4,0.7,0.1,1.5-0.5,1.9l0,0
		C342.9,268.8,342,269.1,341,269.1z"></path>
    <path class="st0" d="M366,278.1c-0.8,0-1.4-0.6-1.4-1.4c0-0.4,0.2-0.9,0.6-1.1c6.8-4.8,5.4-14.9,5.4-15c-0.1-0.7,0.4-1.4,1.2-1.5
		c0.7-0.1,1.4,0.4,1.5,1.1c0.1,0.5,1.6,11.8-6.5,17.6C366.6,278,366.3,278.1,366,278.1z"></path>
    <path class="st7" d="M371.3,304.9h84.2c4.9,0,9.3,3.1,11,7.7c3.2,8.5,3.6,17.8,1,26.5c-5.8,19.3-19.5,28.6-19.5,55.1h-96.4
		c-6.5-27.9,3.9-38.7,7.2-49.6c2.6-8.2,2.9-17,1-25.4c-1.4-6.3,2.6-12.5,8.9-13.9C369.6,305,370.5,304.9,371.3,304.9z">
    </path>
    <path class="st0" d="M448.1,395.5h-96.4c-0.6,0-1.2-0.4-1.3-1c-5.1-22.1,0.1-33.7,4.3-43c1.1-2.4,2.1-4.8,3-7.4
		c2.5-8,2.9-16.5,1-24.7c-0.9-3.8,0-7.9,2.5-10.9c2.5-3.1,6.3-5,10.3-5h84.2c5.5,0,10.3,3.4,12.3,8.5c3.3,8.7,3.7,18.4,1,27.3
		c-2.2,7.2-5.4,13.1-8.6,18.8c-5.6,10-10.8,19.5-10.8,35.9C449.5,394.9,448.9,395.5,448.1,395.5
		C448.1,395.5,448.1,395.5,448.1,395.5z M352.7,392.8h94c0.3-16.3,5.8-26.2,11.2-35.9c3.1-5.6,6.3-11.3,8.4-18.3
		c2.5-8.4,2.1-17.4-1-25.6c-1.5-4.1-5.4-6.8-9.7-6.8h-84.2c-3.2,0-6.2,1.4-8.1,3.9c-2,2.4-2.7,5.6-2,8.6c2,8.6,1.6,17.6-1,26.1
		c-0.9,2.6-1.9,5.2-3.1,7.7C353.1,361.4,348.2,372.3,352.7,392.8z"></path>
    <path class="st7" d="M390.7,304.9h84.2c4.9,0,9.3,3.1,11,7.7c3.2,8.5,3.6,17.8,1,26.5c-5.8,19.3-19.5,28.6-19.5,55.1H371
		c-6.4-27.9,3.9-38.7,7.2-49.6c2.6-8.2,2.9-17,1-25.4c-1.4-6.3,2.6-12.5,8.9-13.9C389,305,389.8,304.9,390.7,304.9z">
    </path>
    <path class="st0" d="M467.4,395.5H371c-0.6,0-1.2-0.4-1.3-1c-5.1-22.1,0.1-33.7,4.3-43c1.2-2.4,2.2-4.8,3-7.4
		c2.5-8,2.9-16.5,1-24.7c-0.9-3.8,0-7.9,2.5-10.9c2.5-3.1,6.3-5,10.3-5H475c5.5,0,10.3,3.4,12.3,8.5c3.3,8.7,3.7,18.4,1,27.3
		c-2.2,7.2-5.4,13.1-8.6,18.8c-5.6,10-10.8,19.5-10.8,35.9C468.8,394.9,468.2,395.5,467.4,395.5
		C467.5,395.5,467.5,395.5,467.4,395.5z M372.1,392.8h94c0.3-16.3,5.8-26.2,11.1-35.9c3.1-5.6,6.3-11.3,8.4-18.3
		c2.5-8.4,2.1-17.4-1-25.6c-1.5-4.1-5.4-6.8-9.7-6.8h-84.2c-3.2,0-6.2,1.4-8.1,3.9c-2,2.4-2.7,5.6-2,8.6c2,8.6,1.6,17.6-1,26.1
		c-0.9,2.6-1.9,5.2-3.1,7.7C372.5,361.4,367.6,372.3,372.1,392.8z"></path>
  </g>
  <g id="line">
    <path class="st0" d="M467.4,395.5h-359c-0.8,0-1.4-0.6-1.4-1.4c0-0.8,0.6-1.4,1.4-1.4h359c0.8,0,1.4,0.6,1.4,1.4
		C468.8,394.9,468.2,395.5,467.4,395.5z"></path>
  </g>
  <g id="pop_up_3">
    <polygon class="st4" points="181.9,230.4 358.5,230.4 326.4,104.5 149.9,104.5 	"></polygon>
    <polygon class="st7" points="260.6,130 318.3,130 315,118.4 257.3,118.4 	"></polygon>
    <polygon class="st7" points="245.6,130 253.9,130 250.6,118.4 242.2,118.4 	"></polygon>
    <polygon class="st7" points="231.6,130 240,130 236.7,118.4 228.3,118.4 	"></polygon>
    <polygon class="st7" points="217.7,130 226.1,130 222.8,118.4 214.4,118.4 	"></polygon>
    <polygon class="st7" points="167.9,130 212.1,130 208.9,118.4 164.6,118.4 	"></polygon>
    <polygon class="st7" points="252,148.2 260.4,148.2 257.1,136.6 248.8,136.6 	"></polygon>
    <polygon class="st7" points="238.1,148.2 246.5,148.2 243.2,136.6 234.8,136.6 	"></polygon>
    <polygon class="st7" points="224.2,148.2 232.6,148.2 229.3,136.6 220.9,136.6 	"></polygon>
    <polygon class="st7" points="293.1,148.2 323.9,148.2 320.6,136.6 289.8,136.6 	"></polygon>
    <polygon class="st7" points="279.2,148.2 287.5,148.2 284.2,136.6 275.9,136.6 	"></polygon>
    <polygon class="st7" points="265.2,148.2 273.6,148.2 270.3,136.6 262,136.6 	"></polygon>
    <polygon class="st7" points="174.4,148.2 218.6,148.2 215.3,136.6 171.1,136.6 	"></polygon>
    <path class="st7" d="M332,167.7h-59.2l-3.7-13h59.2L332,167.7z M273.9,166.3h56.4l-2.9-10.3h-56.4L273.9,166.3z">
    </path>
    <path class="st7" d="M267.6,167.7h-9.8l-3.7-13h9.8L267.6,167.7z M258.8,166.3h6.9l-2.9-10.3h-6.9L258.8,166.3z">
    </path>
    <path class="st7" d="M253.6,167.7h-9.8l-3.7-13h9.8L253.6,167.7z M244.9,166.3h6.9l-2.9-10.3H242L244.9,166.3z"></path>
    <path class="st7" d="M239.7,167.7H230l-3.7-13h9.7L239.7,167.7z M231,166.3h6.9L235,156h-6.9L231,166.3z"></path>
    <path class="st7" d="M225.8,167.7h-45.7l-3.7-13h45.7L225.8,167.7z M181.2,166.3H224l-2.9-10.3h-42.9L181.2,166.3z">
    </path>
    <path class="st7" d="M274,185.8h-9.8l-3.7-13h9.8L274,185.8z M265.3,184.5h6.9l-2.9-10.3h-6.9L265.3,184.5z"></path>
    <path class="st7" d="M260.1,185.8h-9.8l-3.7-13h9.8L260.1,185.8z M251.4,184.5h6.9l-2.9-10.3h-6.9L251.4,184.5z">
    </path>
    <path class="st7" d="M246.2,185.8h-9.8l-3.7-13h9.8L246.2,185.8z M237.5,184.5h6.9l-2.9-10.3h-6.9L237.5,184.5z">
    </path>
    <path class="st7" d="M337.5,185.8h-32.2l-3.7-13h32.2L337.5,185.8z M306.4,184.5h29.4l-2.9-10.3h-29.4L306.4,184.5z">
    </path>
    <path class="st7" d="M301.2,185.8h-9.8l-3.7-13h9.8L301.2,185.8z M292.4,184.5h6.9l-2.9-10.3h-6.9L292.4,184.5z">
    </path>
    <path class="st7" d="M287.2,185.8h-9.8l-3.7-13h9.8L287.2,185.8z M278.5,184.5h6.9l-2.9-10.3h-6.9L278.5,184.5z">
    </path>
    <path class="st7" d="M232.3,185.8h-45.7l-3.7-13h45.7L232.3,185.8z M187.6,184.5h42.9l-2.9-10.3h-42.8L187.6,184.5z">
    </path>
    <path class="st7" d="M338.6,194h-151c-0.4,0-0.7-0.3-0.7-0.7c0-0.4,0.3-0.7,0.7-0.7h151c0.4,0,0.7,0.3,0.7,0.7
		C339.3,193.7,339,194,338.6,194z"></path>
    <path class="st7" d="M340.4,201.2h-151c-0.4,0-0.7-0.3-0.7-0.7c0-0.4,0.3-0.7,0.7-0.7l0,0h151c0.4,0,0.7,0.3,0.7,0.7
		C341.1,200.9,340.8,201.2,340.4,201.2z"></path>
    <path class="st7" d="M342.2,208.5h-151c-0.4,0-0.7-0.3-0.7-0.7c0-0.4,0.3-0.7,0.7-0.7h151c0.4,0,0.7,0.3,0.7,0.7
		C342.9,208.2,342.6,208.5,342.2,208.5z"></path>
    <path class="st7" d="M344,215.7H193c-0.4,0-0.7-0.3-0.7-0.7c0-0.4,0.3-0.7,0.7-0.7h151c0.4,0,0.7,0.3,0.7,0.7
		C344.7,215.4,344.4,215.7,344,215.7z"></path>
  </g>
  <g id="pop_up_2">
    <path class="st7" d="M35.8,288.2h148.6c4.9,0,8.8-3.9,8.8-8.8c0-1.1-0.2-2.2-0.6-3.2l-9.6-25.2c-1.3-3.4-4.6-5.7-8.3-5.7H26.2
		c-4.9,0-8.8,3.9-8.9,8.8c0,1.1,0.2,2.2,0.6,3.2l9.6,25.2C28.8,285.9,32.1,288.2,35.8,288.2z"></path>
    <path class="st0" d="M184.4,289.6H35.8c-4.2,0-8-2.6-9.5-6.6l-9.6-25.1c-2-5.3,0.6-11.1,5.8-13.2c1.2-0.5,2.4-0.7,3.7-0.7h148.6
		c4.2,0,8,2.6,9.5,6.6l9.6,25.2c2,5.3-0.6,11.1-5.9,13.2C186.9,289.3,185.7,289.6,184.4,289.6L184.4,289.6z M26.2,246.7
		c-4.1,0-7.5,3.3-7.5,7.5c0,0.9,0.2,1.8,0.5,2.7l9.6,25.1c1.1,2.9,3.9,4.8,7,4.8h148.6c4.1,0,7.5-3.3,7.5-7.5c0-0.9-0.2-1.8-0.5-2.7
		l-9.6-25.2c-1.1-2.9-3.9-4.8-7-4.8L26.2,246.7z"></path>
    <path class="st0" d="M175.1,299.2H26.6c-2.2,0-4.1-1.3-4.9-3.4l-11.4-30.3c-1-2.7,0.4-5.7,3.1-6.7c0.6-0.2,1.2-0.3,1.8-0.3h3.5
		c0.8,0,1.4,0.6,1.4,1.4c0,0.8-0.6,1.4-1.4,1.4h-3.5c-1.4,0-2.5,1.1-2.5,2.5c0,0.3,0.1,0.6,0.2,0.9l11.4,30.3c0.4,1,1.3,1.6,2.3,1.6
		h148.5c1.8,0,3.3-1.5,3.3-3.3c0-0.3-0.1-0.7-0.1-1l-1-3.2c-0.2-0.7,0.2-1.5,0.9-1.7c0.7-0.2,1.5,0.2,1.7,0.9l1,3.2
		c1,3.2-0.7,6.5-3.9,7.5C176.4,299.1,175.7,299.2,175.1,299.2L175.1,299.2z"></path>
    <linearGradient id="SVGID_00000023253644163814563030000008939763530285096079_" gradientUnits="userSpaceOnUse"
      x1="-1113.6558" y1="316.1039" x2="-1063.4857" y2="261.0238" gradientTransform="matrix(-1 0 0 -1 -979.57 502)">
      <stop offset="0" style="stop-color: rgb(197, 166, 250);"></stop>
      <stop offset="1" style="stop-color: rgb(124, 58, 237);"></stop>
    </linearGradient>
    <polygon points="35.1,259.7 84.5,259.7 
		89.2,270.1 39.2,270.1 	" style="fill: url(&quot;#SVGID_00000023253644163814563030000008939763530285096079_&quot;);">
    </polygon>
    <linearGradient id="SVGID_00000174560818037377855990000016068064550602008736_" gradientUnits="userSpaceOnUse"
      x1="-1134.3691" y1="297.2408" x2="-1084.1992" y2="242.1608" gradientTransform="matrix(-1 0 0 -1 -979.57 502)">
      <stop offset="0" style="stop-color: rgb(197, 166, 250);"></stop>
      <stop offset="1" style="stop-color: rgb(124, 58, 237);"></stop>
    </linearGradient>
    <polygon points="91.2,259.7 104.2,259.7 
		108.9,270.1 95.2,270.1 	" style="fill: url(&quot;#SVGID_00000174560818037377855990000016068064550602008736_&quot;);">
    </polygon>
    <linearGradient id="SVGID_00000010296999847581174540000014937751745412747436_" gradientUnits="userSpaceOnUse"
      x1="-1145.0217" y1="287.5384" x2="-1094.8517" y2="232.4584" gradientTransform="matrix(-1 0 0 -1 -979.57 502)">
      <stop offset="0" style="stop-color: rgb(197, 166, 250);"></stop>
      <stop offset="1" style="stop-color: rgb(124, 58, 237);"></stop>
    </linearGradient>
    <polygon points="110.6,259.7 123.7,259.7 
		128.4,270.1 114.7,270.1 	"
      style="fill: url(&quot;#SVGID_00000010296999847581174540000014937751745412747436_&quot;);"></polygon>
    <linearGradient id="SVGID_00000111911079258876571970000002823642855472512432_" gradientUnits="userSpaceOnUse"
      x1="-1156.1483" y1="277.4116" x2="-1105.9683" y2="222.3215" gradientTransform="matrix(-1 0 0 -1 -979.57 502)">
      <stop offset="0" style="stop-color: rgb(197, 166, 250);"></stop>
      <stop offset="1" style="stop-color: rgb(124, 58, 237);"></stop>
    </linearGradient>
    <polygon points="131,259.7 144.1,259.7 
		148.7,270.1 135.1,270.1 	"
      style="fill: url(&quot;#SVGID_00000111911079258876571970000002823642855472512432_&quot;);"></polygon>
    <linearGradient id="SVGID_00000111899583716335705090000010023752239804358573_" gradientUnits="userSpaceOnUse"
      x1="-1171.0692" y1="263.8107" x2="-1120.8993" y2="208.7307" gradientTransform="matrix(-1 0 0 -1 -979.57 502)">
      <stop offset="0" style="stop-color: rgb(197, 166, 250);"></stop>
      <stop offset="1" style="stop-color: rgb(124, 58, 237);"></stop>
    </linearGradient>
    <polygon points="151.3,259.7 178.3,259.7 
		183,270.1 155.4,270.1 	" style="fill: url(&quot;#SVGID_00000111899583716335705090000010023752239804358573_&quot;);">
    </polygon>
  </g>
  <g id="pop_up_1">
    <linearGradient id="SVGID_00000094612063979955881370000011459521993802303666_" gradientUnits="userSpaceOnUse"
      x1="175.6935" y1="312.993" x2="231.7435" y2="247.593" gradientTransform="matrix(1 0 0 -1 0 502)">
      <stop offset="0" style="stop-color: rgb(197, 166, 250);"></stop>
      <stop offset="1" style="stop-color: rgb(124, 58, 237);"></stop>
    </linearGradient>
    <polygon points="195.1,243.5 213,299.1 
		298.9,299.1 279.1,243.1 	"
      style="fill: url(&quot;#SVGID_00000094612063979955881370000011459521993802303666_&quot;);"></polygon>
    <path class="st7" d="M275,255.2h-69.2c-0.4,0-0.7-0.3-0.7-0.7c0-0.4,0.3-0.7,0.7-0.7H275c0.4,0,0.7,0.3,0.7,0.7
		C275.7,254.9,275.4,255.2,275,255.2z"></path>
    <path class="st7" d="M277.7,262h-69.2c-0.4,0-0.7-0.3-0.7-0.7s0.3-0.7,0.7-0.7c0,0,0,0,0,0h69.2c0.4,0,0.7,0.3,0.7,0.7
		C278.3,261.7,278,262,277.7,262z"></path>
    <path class="st7" d="M280.3,268.8h-69.2c-0.4,0-0.7-0.3-0.7-0.7c0-0.4,0.3-0.7,0.7-0.7h69.2c0.4,0,0.7,0.3,0.7,0.7
		C281,268.5,280.7,268.8,280.3,268.8z"></path>
    <path class="st7" d="M282.9,275.6h-69.2c-0.4,0-0.7-0.3-0.7-0.7c0-0.4,0.3-0.7,0.7-0.7h69.2c0.4,0,0.7,0.3,0.7,0.7
		C283.6,275.3,283.3,275.6,282.9,275.6C282.9,275.6,282.9,275.6,282.9,275.6L282.9,275.6z"></path>
    <path class="st7" d="M285.5,282.4h-69.2c-0.4,0-0.7-0.3-0.7-0.7c0-0.4,0.3-0.7,0.7-0.7h69.2c0.4,0,0.7,0.3,0.7,0.7
		C286.2,282.1,285.9,282.4,285.5,282.4z"></path>
  </g>
</svg>